<svg xmlns="http://www.w3.org/2000/svg" viewBox="0 0 178.45 162.96"><defs><style>.cls-1,.cls-3,.cls-5{fill:none;stroke-miterlimit:10;}.cls-1{stroke:#ffcdaa;stroke-width:5px;}.cls-1,.cls-3{stroke-linecap:round;}.cls-2{fill:#ffcdaa;}.cls-3{stroke:#000;stroke-width:2px;}.cls-4{fill:#ff9169;}.cls-5{stroke:#6450a5;stroke-width:3.79px;}.cls-6{fill:#b1a7d2;}.cls-7{fill:#6450a5;}.cls-8{fill:#9bcaca;}.cls-9{fill:#6453a2;}.cls-10{fill:#b0a7d0;}</style></defs><g id="Layer_2" data-name="Layer 2"><g id="Lager_1" data-name="Lager 1"><path class="cls-1" d="M75.91,136.22s-24.53,7.65-18.5,18.92c7.9,14.74,54.73-5.84,54.73-5.84l2.64,3.63"/><path class="cls-1" d="M97.41,136.22s36.22,4.63,29.71,17.8c-8.45,17.11-56.24-5.35-56.24-5.35L68,152.38"/><path class="cls-1" d="M56.79,127.26c-11,7.48-11.93,13.82-.06,22.41"/><path class="cls-1" d="M131.69,126.86c19.13,3.65,24.41-6.31,24.56-15"/><circle class="cls-2" cx="93.7" cy="88.82" r="58.62"/><path class="cls-3" d="M87.52,87.4a10.78,10.78,0,0,0,10.35,0"/><ellipse class="cls-4" cx="52.32" cy="91.97" rx="8.31" ry="4.4"/><ellipse class="cls-4" cx="135.08" cy="91.97" rx="8.31" ry="4.4"/><path class="cls-3" d="M71.14,79.54c-3.06,5.18-9.51,5.34-12.65.08"/><path class="cls-3" d="M128.92,79.54c-3.06,5.18-9.51,5.34-12.65.08"/><g id="bLmnw8"><path class="cls-5" d="M33,84.63a45.43,45.43,0,0,1-3.54-17.58c0-29.47,28.5-53.36,63.66-53.36S156.8,37.58,156.8,67.05a45.32,45.32,0,0,1-2.63,15.21"/><path class="cls-6" d="M43.66,29A62,62,0,0,1,66.44,13.78,72.05,72.05,0,0,1,79.73,10,79.39,79.39,0,0,1,93.49,8.73a73.9,73.9,0,0,1,27.08,5.11,62.12,62.12,0,0,1,22.84,15.34,3.62,3.62,0,0,1-4.94,5.26l0,0a69.2,69.2,0,0,0-21.16-11.72,73.15,73.15,0,0,0-11.74-3,72,72,0,0,0-12.09-1,75.9,75.9,0,0,0-23.94,3.62A70.35,70.35,0,0,0,48,33.67l0,0A3.2,3.2,0,0,1,43.66,29Z"/><path class="cls-6" d="M25.87,62.93a24.23,24.23,0,0,0,0,46.83Z"/><rect class="cls-7" x="28.31" y="60.85" width="10.57" height="51" rx="3.16"/><rect class="cls-8" x="23.43" y="60.85" width="4.88" height="51" rx="2.44"/><path class="cls-6" d="M160.44,62.93v46.83a24.23,24.23,0,0,0,0-46.83Z"/><rect class="cls-7" x="147.43" y="60.85" width="10.57" height="51" rx="3.16" transform="translate(305.43 172.69) rotate(-180)"/><rect class="cls-8" x="158" y="60.85" width="4.88" height="51" rx="2.44" transform="translate(320.88 172.69) rotate(-180)"/></g><path class="cls-9" d="M18.71,42.2s14.6-.92,11.81-7.36-9.4-.48-9.4-.48-1.4-6.67-5.79-5.38S18.71,42.2,18.71,42.2Z"/><path class="cls-10" d="M11.73,60s7.84-11.17,1.53-12.89-5.83,6.57-5.83,6.57S1.76,50.78.14,54.73,11.73,60,11.73,60Z"/><path class="cls-10" d="M23.3,18.63S34.43,2.78,25.47.33,17.2,9.65,17.2,9.65s-8-4.07-10.35,1.53S23.3,18.63,23.3,18.63Z"/></g></g></svg>