<svg xmlns="http://www.w3.org/2000/svg" viewBox="0 0 150.93 191.91"><defs><style>.cls-1{fill:#ffcdaa;}.cls-2{fill:#ff9169;}.cls-3,.cls-4,.cls-8{fill:none;stroke-linecap:round;}.cls-3{stroke:#000;}.cls-3,.cls-4{stroke-miterlimit:10;}.cls-4{stroke:#ffcdaa;stroke-width:3px;}.cls-5{fill:#b1a7d2;opacity:0.5;}.cls-6{fill:#6450a5;}.cls-7{fill:#fff;}.cls-8{stroke:#b1a7d2;stroke-linejoin:round;stroke-width:2px;}</style></defs><g id="Layer_2" data-name="Layer 2"><g id="Lager_1" data-name="Lager 1"><circle class="cls-1" cx="41.7" cy="131.66" r="41.69"/><ellipse class="cls-2" cx="15.29" cy="135.42" rx="5.91" ry="3.13" transform="translate(-23.51 4.78) rotate(-10.1)"/><ellipse class="cls-2" cx="73.23" cy="125.1" rx="5.91" ry="3.13" transform="translate(-20.81 14.78) rotate(-10.1)"/><path class="cls-3" d="M38.21,127.4A17.6,17.6,0,0,0,46.68,126"/><circle cx="22.6" cy="125.81" r="2.99"/><circle cx="63.05" cy="118.6" r="2.99"/><path class="cls-4" d="M5.14,148.29c-10.09,14.66,6.32,12.07,6.32,12.07"/><path class="cls-4" d="M81.87,130.26c15.43,6.52-.69,14.8-.69,14.8"/><path class="cls-4" d="M34.28,169.37a22.45,22.45,0,0,1,0,15.12"/><path class="cls-4" d="M52.51,169.37a22.39,22.39,0,0,1,0,15.12"/><path class="cls-5" d="M115.11,180.38,112.2,115.1l4.21-103.36C116.7,4.68,122.71,0,130,0h0c7.36,0,13.38,4.7,13.59,10.61l3.77,103.33-2.63,66.41c-.25,6.44-6.82,11.56-14.83,11.56h0C121.94,191.91,115.38,186.81,115.11,180.38Z"/><path class="cls-6" d="M112.25,113.94l2.86,66.44c.27,6.43,6.83,11.53,14.83,11.53h0c8,0,14.58-5.12,14.83-11.56l2.63-66.41Z"/><rect class="cls-7" x="115.7" y="83.33" width="28.96" height="15.59" rx="6.99" transform="translate(221.3 -39.05) rotate(90)"/><path class="cls-8" d="M115,51.06c-13.49,6.86-.8,13.52-.8,13.52l-.34,2.4"/><path class="cls-8" d="M145.44,67.3l-.36-2.64s11-8.4-.16-13.62"/><circle cx="120.19" cy="43.36" r="2.16"/><circle cx="135.82" cy="43.36" r="2.16"/><path class="cls-3" d="M130.23,44.46a12.65,12.65,0,0,1-4.59,0"/></g></g></svg>