<svg xmlns="http://www.w3.org/2000/svg" viewBox="0 0 136.32 205.1"><defs><style>.cls-1{fill:#ffcdaa;}.cls-2,.cls-4{fill:none;stroke-linecap:round;stroke-miterlimit:10;}.cls-2{stroke:#000;stroke-width:2px;}.cls-3{fill:#ff9169;}.cls-4{stroke:#ffcdaa;stroke-width:5px;}.cls-5{fill:#fff;}</style></defs><g id="Layer_2" data-name="Layer 2"><g id="Lager_1" data-name="Lager 1"><circle class="cls-1" cx="69.3" cy="124.22" r="64.14"/><path class="cls-2" d="M62.54,122.67a11.79,11.79,0,0,0,11.32,0"/><ellipse class="cls-3" cx="24.03" cy="127.66" rx="9.1" ry="4.81"/><ellipse class="cls-3" cx="114.58" cy="127.66" rx="9.1" ry="4.81"/><path class="cls-2" d="M44.62,114.07c-3.35,5.67-10.4,5.84-13.85.08"/><path class="cls-2" d="M107.83,114.07c-3.35,5.67-10.4,5.84-13.84.08"/><path class="cls-4" d="M49.84,176.08S23,184.45,29.6,196.78c8.64,16.13,59.87-6.39,59.87-6.39l2.89,4"/><path class="cls-4" d="M73.36,176.08s39.63,5.07,32.51,19.48c-9.25,18.71-61.54-5.86-61.54-5.86l-3.15,4.06"/><path class="cls-4" d="M28.92,166.28C23.28,180.82,10.1,184.23,2.5,177.84"/><path class="cls-4" d="M108.52,167.27c6.27,15.53,16.88,17.18,25.3,11.89"/><path class="cls-5" d="M85.94,56.87a14.73,14.73,0,0,0-13-13s11.77-1.67,13-13c1.41,10.55,13,13,13,13S88,44.23,85.94,56.87Z"/><path class="cls-5" d="M49.48,42.49a9.38,9.38,0,0,0-8.26-8.27s7.49-1.06,8.26-8.27c.91,6.73,8.27,8.27,8.27,8.27S50.79,34.43,49.48,42.49Z"/><path class="cls-5" d="M69,20.55A11.67,11.67,0,0,0,58.67,10.27S68,9,69,0c1.12,8.36,10.27,10.27,10.27,10.27S70.56,10.54,69,20.55Z"/></g></g></svg>