<svg xmlns="http://www.w3.org/2000/svg" xmlns:xlink="http://www.w3.org/1999/xlink" viewBox="0 0 278.92 298.43"><defs><style>.cls-1,.cls-6,.cls-9{fill:none;}.cls-2{clip-path:url(#clip-path);}.cls-3{fill:#fff;}.cls-4{fill:#9bcaca;}.cls-5{fill:#ffcdaa;}.cls-6{stroke:#000;stroke-width:1.6px;}.cls-6,.cls-9{stroke-linecap:round;stroke-miterlimit:10;}.cls-7{fill:#ff9169;}.cls-8{fill:#b1a7d2;}.cls-9{stroke:#ffcdaa;stroke-width:4.01px;}.cls-10{fill:#379696;}.cls-11{fill:#6450a5;}</style><clipPath id="clip-path" transform="translate(3.96)"><circle class="cls-1" cx="145.48" cy="145.48" r="145.48"/></clipPath></defs><g id="Layer_2" data-name="Layer 2"><g id="Lager_1" data-name="Lager 1"><g class="cls-2"><rect class="cls-3" x="10.07" y="218.83" width="268.84" height="79.6"/><rect class="cls-4" x="155.65" y="183.82" width="105.33" height="36.56" rx="18.28"/><circle class="cls-5" cx="190.02" cy="164.34" r="51.42"/><path class="cls-6" d="M187.3,158.92a9.45,9.45,0,0,0,0,9.07" transform="translate(3.96)"/><ellipse class="cls-7" cx="187.26" cy="128.05" rx="3.86" ry="7.29"/><ellipse class="cls-7" cx="187.26" cy="200.63" rx="3.86" ry="7.29"/><path class="cls-6" d="M194.2,144.55c-4.55-2.68-4.68-8.33-.07-11.1" transform="translate(3.96)"/><path class="cls-6" d="M194.2,195.23c-4.55-2.69-4.68-8.34-.07-11.1" transform="translate(3.96)"/><path class="cls-8" d="M173.26,115.38c6,18.92-3.87,105.1-3.87,105.1L39,219s29.41-9,42.53-39.32c11.31-26.2,22.62-41.43,40.78-51.8C140.21,117.7,161.15,114.54,173.26,115.38Z" transform="translate(3.96)"/><path class="cls-9" d="M174.53,123.43s-15.77,3.58-17,17.87" transform="translate(3.96)"/><rect class="cls-10" x="58.08" width="84.99" height="103.57"/><rect class="cls-3" x="54.67" y="99.55" width="91.82" height="8.53"/><path class="cls-3" d="M114.19,78.21a13,13,0,0,0-11.42-11.42s10.35-1.46,11.42-11.41c1.25,9.29,11.41,11.41,11.41,11.41S116,67.09,114.19,78.21Z" transform="translate(3.96)"/><path class="cls-3" d="M82.11,65.55a8.24,8.24,0,0,0-7.27-7.27s6.6-.94,7.27-7.28c.8,5.92,7.28,7.28,7.28,7.28S83.26,58.46,82.11,65.55Z" transform="translate(3.96)"/><path class="cls-3" d="M99.24,46.25a10.26,10.26,0,0,0-9-9s8.2-1.16,9-9c1,7.35,9,9,9,9S100.66,37.44,99.24,46.25Z" transform="translate(3.96)"/><path class="cls-4" d="M67.63,4.93C68.27,22.14,64.9,168.3,64.9,168.3s-12-2.66-19.94-2.66-12.65,3.44-21.55,3.83c-8,.34-27.37-4.36-27.37-4.36L-3.9,11.53Z" transform="translate(3.96)"/><path class="cls-11" d="M201.48,101.22l5.68-13.87-7.44,1.19-.28-1.74,9.92-1.58.2,1.24-5.68,13.87,8.06-1.28.28,1.73-10.54,1.68Z" transform="translate(3.96)"/><path class="cls-11" d="M199.35,72.39l6.75-6.62-4.61-1.17.27-1.08,6.14,1.57-.19.76L201,72.47l5,1.27-.28,1.07-6.52-1.66Z" transform="translate(3.96)"/><path class="cls-11" d="M192.69,58.14l1-6.74-3.14,1.35-.32-.74,4.2-1.8.22.53-1,6.74L197.06,56l.32.74-4.46,1.91Z" transform="translate(3.96)"/></g></g></g></svg>