<svg xmlns="http://www.w3.org/2000/svg" xmlns:xlink="http://www.w3.org/1999/xlink" viewBox="0 0 287.42 171.35"><defs><style>.cls-1,.cls-14,.cls-4,.cls-6{fill:none;}.cls-2{fill:#b1a7d2;}.cls-3{fill:#b0a7d2;}.cls-4{stroke:#ffcdaa;stroke-width:2.62px;}.cls-14,.cls-4,.cls-6{stroke-linecap:round;stroke-miterlimit:10;}.cls-5{fill:#fdccab;}.cls-6{stroke:#000;stroke-width:0.65px;}.cls-7{fill:#fc906e;}.cls-8{fill:#6450a5;}.cls-9{fill:#412d6e;}.cls-10{clip-path:url(#clip-path);}.cls-11{fill:#b0a7d0;}.cls-12{fill:#6453a2;}.cls-13{fill:#9bc9c9;}.cls-14{stroke:#6453a2;stroke-width:1.24px;}</style><clipPath id="clip-path" transform="translate(-0.57)"><rect class="cls-1" x="95.56" y="-35.9" width="97.45" height="276.9" transform="translate(20.82 229.4) rotate(-81.18)"/></clipPath></defs><g id="Layer_2" data-name="Layer 2"><g id="Lager_1" data-name="Lager 1"><path class="cls-2" d="M139,3.14A76.7,76.7,0,0,0,124.91,0c-.48-.08-.68.64-.2.72a76.73,76.73,0,0,1,14,3.14c.46.16.65-.57.2-.73Z" transform="translate(-0.57)"/><path class="cls-2" d="M136.45,16a222.87,222.87,0,0,0-22.17-4.57c-.47-.08-.67.64-.2.73a222.83,222.83,0,0,1,22.17,4.56.37.37,0,0,0,.2-.72Z" transform="translate(-0.57)"/><path class="cls-2" d="M132.36,27.77q-6.68-.87-13.25-2.25c-.48-.09-.68.63-.2.73q6.68,1.38,13.45,2.27c.48.06.47-.69,0-.75Z" transform="translate(-0.57)"/><path class="cls-3" d="M140.51,36.69l3.35-10.2c.45-1.37,1.49-2.26,2.33-2h0a1.67,1.67,0,0,1,.9,1.68L147.32,37,140.4,37" transform="translate(-0.57)"/><path class="cls-4" d="M145.87,4.86s-1.68,8.09,1.3,14.43" transform="translate(-0.57)"/><path class="cls-4" d="M190.87,10.58s.44,9.38-3.83,15.3" transform="translate(-0.57)"/><circle class="cls-5" cx="166.52" cy="22.81" r="20.83"/><path class="cls-6" d="M179.55,22.77a2.55,2.55,0,0,0-4.49-.24" transform="translate(-0.57)"/><path class="cls-6" d="M159.28,19.43a2.55,2.55,0,0,0-4.5-.09" transform="translate(-0.57)"/><ellipse class="cls-7" cx="152.52" cy="22.16" rx="1.56" ry="2.95" transform="translate(109.52 170.33) rotate(-82.29)"/><ellipse cx="167.24" cy="22.86" rx="1.66" ry="1.11" transform="translate(121.58 185.52) rotate(-82.29)"/><ellipse class="cls-7" cx="181.64" cy="26.3" rx="1.56" ry="2.95" transform="translate(148.3 206.89) rotate(-87.95)"/><path class="cls-8" d="M141.18,38.66h31.55a15,15,0,0,1,15,15v0a4.13,4.13,0,0,1-4.13,4.13H141.18a4.13,4.13,0,0,1-4.13-4.13V42.79a4.13,4.13,0,0,1,4.13-4.13Z" transform="translate(22.57 -48.25) rotate(18.18)"/><circle class="cls-9" cx="144.81" cy="52.37" r="3.09"/><circle class="cls-9" cx="171.64" cy="61.1" r="3.09"/><g id="DNA"><g class="cls-10"><g class="cls-10"><path class="cls-11" d="M114.5,140.54a2,2,0,0,0,2.31-1.69l10.93-70.42a43.27,43.27,0,0,0-4.37,1.75l-10.55,68a2,2,0,0,0,1.68,2.31" transform="translate(-0.57)"/><path class="cls-11" d="M243.07,81.62a2,2,0,0,0-2.31,1.68L232.28,138c1.14,1.23,2.31,2.43,3.53,3.58l8.95-57.63a2,2,0,0,0-1.69-2.3" transform="translate(-0.57)"/><path class="cls-11" d="M52.1,52.35l-9.47,61.06q2.25-1,4.41-2.1L56.1,53a2,2,0,0,0-4-.62" transform="translate(-0.57)"/><path class="cls-11" d="M161.15,147.77a2,2,0,0,0,2.31-1.68l10.21-65.86Q172,78.47,170.1,76.9l-10.64,68.57a2,2,0,0,0,1.69,2.3" transform="translate(-0.57)"/><path class="cls-11" d="M25.43,117.9,37.14,42.47a2,2,0,0,0-4-.61L21.29,118.22c1.41-.06,2.79-.17,4.14-.32" transform="translate(-0.57)"/><path class="cls-11" d="M264.59,77.77l-11.68,75.31c1.24.57,2.51,1.11,3.84,1.61l11.84-76.3a2,2,0,1,0-4-.62" transform="translate(-0.57)"/><path class="cls-11" d="M139.69,145.28l12.05-77.64c-1.21-.28-2.46-.54-3.75-.74l-.22,0L135.7,144.66a2,2,0,1,0,4,.62" transform="translate(-0.57)"/><path class="cls-12" d="M199.85,122c-1.37-2.46-2.71-4.92-4-7.36-18,17.4-34.12,31.76-59.56,27.81s-35.28-22.28-46-44q-2.94,3.06-6,6.11c10.51,21.07,22.58,41.5,50.74,45.87,28.37,4.4,47.2-11.51,64.82-28.44" transform="translate(-0.57)"/><path class="cls-12" d="M80.1,83.38l1.69-1.76C70.14,60,54.13,39.25,18.94,33.79a4,4,0,1,0-1.24,8c32.81,5.09,47,24.69,58.19,46l4.21-4.37" transform="translate(-0.57)"/><path class="cls-12" d="M209.18,101.88l1,1.9c1,1.83,2,3.64,2.93,5.44C231.18,92.44,251.37,78,283.33,83a4,4,0,0,0,1.24-8c-34.51-5.35-56.78,9.85-75.39,26.87" transform="translate(-0.57)"/><path class="cls-13" d="M91.58,90.1c16.78-17.44,31.85-31.91,57.15-28,26.68,4.14,37.52,24.37,50.07,47.78,13.82,25.78,29.48,55,70.83,61.41a4,4,0,0,0,1.24-8c-37.37-5.8-51.39-31.95-64.94-57.24-12.44-23.21-25.3-47.2-56-51.95-28.16-4.38-45.85,11.44-62.25,28.33,1.33,2.55,2.61,5.11,3.86,7.64" transform="translate(-0.57)"/><path class="cls-13" d="M78.39,103.55c-.36-.73-.73-1.46-1.08-2.18-.88-1.8-1.78-3.62-2.69-5.44C57.55,112.82,38.05,127.19,5.23,122.1a4,4,0,0,0-1.24,8c35.2,5.46,56.75-9.49,74.4-26.54" transform="translate(-0.57)"/><path class="cls-14" d="M135.65,146.43C75.12,137,95.23,49.72,18.32,37.79" transform="translate(-0.57)"/></g></g></g></g></g></svg>