<svg xmlns="http://www.w3.org/2000/svg" xmlns:xlink="http://www.w3.org/1999/xlink" viewBox="0 0 186.18 167.15"><defs><style>.cls-1,.cls-11,.cls-7,.cls-9{fill:none;}.cls-2{fill:#9bc9c9;}.cls-3,.cls-5{fill:#b0a7d0;}.cls-3{opacity:0.5;}.cls-4{fill:#fdccab;}.cls-6{clip-path:url(#clip-path);}.cls-7{stroke:#fff;stroke-width:0.84px;}.cls-11,.cls-7,.cls-9{stroke-linecap:round;stroke-miterlimit:10;}.cls-8{fill:#ffcdaa;}.cls-9{stroke:#000;stroke-width:2px;}.cls-10{fill:#ff9169;}.cls-11{stroke:#ffcdaa;stroke-width:5px;}</style><clipPath id="clip-path"><path class="cls-1" d="M78.6-30.07h9.77a2.42,2.42,0,0,1,2.42,2.42v94.5a0,0,0,0,1,0,0H76.18a0,0,0,0,1,0,0v-94.5a2.42,2.42,0,0,1,2.42-2.42Z" transform="translate(86.49 -67.05) rotate(79.59)"/></clipPath></defs><g id="Layer_2" data-name="Layer 2"><g id="Lager_1" data-name="Lager 1"><rect class="cls-2" x="39.46" y="-14.9" width="6.99" height="81.47" transform="translate(60.6 -21.08) rotate(79.59)"/><rect class="cls-2" x="42.04" y="-14.9" width="1.83" height="81.47" transform="translate(60.6 -21.08) rotate(79.59)"/><path class="cls-3" d="M78.6-30.07h9.77a2.42,2.42,0,0,1,2.42,2.42v94.5a0,0,0,0,1,0,0H76.18a0,0,0,0,1,0,0v-94.5a2.42,2.42,0,0,1,2.42-2.42Z" transform="translate(86.49 -67.05) rotate(79.59)"/><path class="cls-4" d="M102.67-9.16h7.9a1.67,1.67,0,0,1,1.67,1.67V37.43a0,0,0,0,1,0,0H101a0,0,0,0,1,0,0V-7.49a1.67,1.67,0,0,1,1.67-1.67Z" transform="translate(101.26 -93.28) rotate(79.59)"/><rect class="cls-5" x="75.7" y="15.64" width="14.61" height="5.56" transform="translate(86.13 -66.55) rotate(79.59)"/><rect class="cls-5" x="20.54" y="25.82" width="27.76" height="3.17" rx="1.58" transform="translate(55.15 -11.4) rotate(79.59)"/><rect class="cls-5" x="-5.91" y="31.61" width="17.59" height="3.17" rx="1.58" transform="translate(35.01 24.36) rotate(79.59)"/><polygon class="cls-5" points="186.18 0 180.94 0 144.91 6.62 145.08 7.55 186.18 0"/><polygon class="cls-2" points="150.73 8.17 150.02 4.28 130.51 6.19 131.82 13.32 150.73 8.17"/><g class="cls-6"><line class="cls-7" x1="124.05" y1="3.51" x2="124.74" y2="7.25"/><line class="cls-7" x1="111.94" y1="5.73" x2="112.63" y2="9.48"/><line class="cls-7" x1="99.84" y1="7.95" x2="100.53" y2="11.7"/><line class="cls-7" x1="87.73" y1="10.18" x2="88.42" y2="13.93"/><line class="cls-7" x1="75.62" y1="12.4" x2="76.31" y2="16.15"/><line class="cls-7" x1="63.52" y1="14.63" x2="64.21" y2="18.37"/><line class="cls-7" x1="51.41" y1="16.85" x2="52.1" y2="20.6"/><line class="cls-7" x1="39.31" y1="19.07" x2="39.99" y2="22.82"/><line class="cls-7" x1="118" y1="4.62" x2="118.69" y2="8.37"/><line class="cls-7" x1="105.89" y1="6.84" x2="107.17" y2="13.8"/><line class="cls-7" x1="93.78" y1="9.07" x2="94.47" y2="12.81"/><line class="cls-7" x1="81.68" y1="11.29" x2="82.96" y2="18.25"/><line class="cls-7" x1="69.57" y1="13.51" x2="70.26" y2="17.26"/><line class="cls-7" x1="57.47" y1="15.74" x2="58.74" y2="22.7"/><line class="cls-7" x1="45.36" y1="17.96" x2="46.05" y2="21.71"/></g><circle class="cls-8" cx="94.83" cy="89.52" r="59.19"/><path class="cls-9" d="M81.65,77.36A25.28,25.28,0,0,0,105.89,76"/><ellipse class="cls-10" cx="53.3" cy="84.12" rx="8.39" ry="4.44" transform="translate(-4.8 3.24) rotate(-3.33)"/><ellipse class="cls-10" cx="136.73" cy="79.26" rx="8.39" ry="4.44" transform="translate(-4.37 8.08) rotate(-3.33)"/><circle cx="65.22" cy="71.78" r="4.25"/><circle cx="123.47" cy="68.39" r="4.25"/><path class="cls-11" d="M36.58,78.93c-11.25-2.64-17.66-24.48-9.73-46.58"/><path class="cls-11" d="M150.05,68.15c14.66-9.47,6-46-1.94-57.19"/><path class="cls-11" d="M77.07,142.85c-3.09,7.13-3.88,13.57-3.19,21.8"/><path class="cls-11" d="M109.53,143.28c2.64,7.93,2.86,16.29,1.78,21.15"/></g></g></svg>