<svg xmlns="http://www.w3.org/2000/svg" viewBox="0 0 132.91 203.38"><defs><style>.cls-1{fill:#ffcdaa;}.cls-2,.cls-4,.cls-5,.cls-7,.cls-8{fill:none;stroke-miterlimit:10;}.cls-2{stroke:#000;}.cls-2,.cls-4,.cls-5,.cls-8{stroke-linecap:round;}.cls-2,.cls-7,.cls-8{stroke-width:2px;}.cls-3{fill:#ff9169;}.cls-4{stroke:#ffcdaa;}.cls-4,.cls-5{stroke-width:5px;}.cls-5{stroke:#f4c09d;}.cls-6{fill:#d1dbe5;opacity:0.3;}.cls-7,.cls-8{stroke:#412d6e;}.cls-9{fill:#fffee6;}</style></defs><g id="Layer_2" data-name="Layer 2"><g id="Lager_1" data-name="Lager 1"><circle class="cls-1" cx="59.58" cy="125.65" r="59.19"/><path class="cls-2" d="M53.48,126.66c1.82,4.29,9.52,3.41,12-.83"/><ellipse class="cls-3" cx="18.05" cy="131.24" rx="8.39" ry="4.44" transform="translate(-7.59 1.27) rotate(-3.33)"/><ellipse class="cls-3" cx="101.48" cy="126.39" rx="8.39" ry="4.44" transform="translate(-7.17 6.11) rotate(-3.33)"/><circle cx="29.97" cy="118.91" r="4.25"/><circle cx="88.22" cy="115.52" r="4.25"/><path class="cls-4" d="M44.39,179.41c2.65,7.93,2.32,15.52,0,21.47"/><path class="cls-4" d="M70.28,179.41c2.64,7.93,2.31,15.52,0,21.47"/><path class="cls-5" d="M8.18,149C.8,165.36,32.07,163.34,32.07,163.34"/><path class="cls-5" d="M112.1,145.31c7.38,16.4-23.88,14.39-23.88,14.39"/><circle class="cls-6" cx="29.97" cy="118.91" r="18.16"/><circle class="cls-6" cx="88.22" cy="115.52" r="17.65"/><circle class="cls-7" cx="29.97" cy="118.91" r="18.16"/><circle class="cls-7" cx="88.22" cy="115.52" r="17.65"/><path class="cls-8" d="M48.13,117.08s2-5.94,9.92-6.93a15.86,15.86,0,0,1,12.51,3.43"/><line class="cls-8" x1="12.1" y1="115.67" x2="1" y2="117.08"/><line class="cls-8" x1="105.87" y1="110" x2="116.68" y2="110"/><path class="cls-9" d="M117.4,68a17.62,17.62,0,0,0-15.51-15.51S116,50.48,117.4,37c1.69,12.62,15.51,15.51,15.51,15.51S119.84,52.88,117.4,68Z"/><path class="cls-9" d="M73.82,50.79a11.21,11.21,0,0,0-9.88-9.88s9-1.27,9.88-9.89c1.08,8,9.88,9.89,9.88,9.89S75.38,41.16,73.82,50.79Z"/><path class="cls-9" d="M97.09,24.56A14,14,0,0,0,84.8,12.28S95.94,10.7,97.09,0c1.34,10,12.28,12.28,12.28,12.28S99,12.6,97.09,24.56Z"/></g></g></svg>