<svg xmlns="http://www.w3.org/2000/svg" xmlns:xlink="http://www.w3.org/1999/xlink" viewBox="0 0 145.83 208.86"><defs><style>.cls-1,.cls-10,.cls-3{fill:none;}.cls-2{fill:#ffcdaa;}.cls-3{stroke:#000;stroke-width:2px;}.cls-10,.cls-3{stroke-linecap:round;stroke-miterlimit:10;}.cls-4{fill:#ff9169;}.cls-5{fill:#6450a5;}.cls-6{clip-path:url(#clip-path);}.cls-7{fill:#b1a7d2;}.cls-8{fill:#fff;}.cls-9{fill:#9bcaca;}.cls-10{stroke:#ffcdaa;stroke-width:5px;}</style><clipPath id="clip-path"><polygon class="cls-1" points="88.67 76.99 128.04 39.07 121.01 96.58 88.67 76.99"/></clipPath></defs><g id="Layer_2" data-name="Layer 2"><g id="Lager_1" data-name="Lager 1"><circle class="cls-2" cx="76.19" cy="131.13" r="59.19"/><path class="cls-3" d="M63,130a25.3,25.3,0,0,0,24.25-1.41"/><ellipse class="cls-4" cx="34.66" cy="136.73" rx="8.39" ry="4.44" transform="translate(-7.89 2.24) rotate(-3.33)"/><ellipse class="cls-4" cx="118.09" cy="131.87" rx="8.39" ry="4.44" transform="translate(-7.46 7.08) rotate(-3.33)"/><circle cx="46.58" cy="124.4" r="4.25"/><circle cx="104.82" cy="121.01" r="4.25"/><polygon class="cls-5" points="88.67 76.99 128.04 39.07 121.01 96.58 88.67 76.99"/><g class="cls-6"><rect class="cls-7" x="108.73" y="51.87" width="31.35" height="5.83" transform="translate(106.88 -80.02) rotate(58.83)"/><rect class="cls-7" x="98.45" y="63.17" width="37.88" height="5.83" transform="translate(113.16 -68.56) rotate(58.83)"/><rect class="cls-7" x="86.59" y="74.48" width="47.55" height="5.83" transform="translate(119.45 -57.1) rotate(58.83)"/><rect class="cls-7" x="81.5" y="82.36" width="39.53" height="5.83" transform="translate(121.81 -45.51) rotate(58.83)"/></g><path class="cls-8" d="M74.88,15.34l-.37,0a6.6,6.6,0,0,0,.37-2.15A6.47,6.47,0,0,0,64.09,8.38,13.8,13.8,0,0,0,37.6,13.79c0,.18,0,.36,0,.54a9.74,9.74,0,0,0-1.72-.16A10.47,10.47,0,0,0,34.61,35v.09H74.88a9.89,9.89,0,0,0,0-19.77Z"/><path class="cls-7" d="M16.46,57H8.86s1.08-1.21,1.08-5.22-1.08-5.74-1.08-5.74h7.6s1.08,1.66,1.08,5.82S16.46,57,16.46,57Z"/><path class="cls-9" d="M37.57,40.92l-6.36,4.17s.24-1.6-1.95-5-4.05-4.21-4.05-4.21l6.36-4.17s1.81.8,4.09,4.28S37.57,40.92,37.57,40.92Z"/><path class="cls-2" d="M6.86,35.7,0,32.43s1.49-.63,3.22-4.24,1.49-5.65,1.49-5.65l6.86,3.27s.26,2-1.53,5.72S6.86,35.7,6.86,35.7Z"/><path class="cls-7" d="M46.5,27.54l-3.14-6.92s1.54.48,5.19-1.17,4.78-3.36,4.78-3.36L56.47,23s-1.07,1.67-4.85,3.39S46.5,27.54,46.5,27.54Z"/><path class="cls-9" d="M69.86,40.11,63.44,36s1.56-.44,3.7-3.82,2.17-5.43,2.17-5.43l6.41,4.07s0,2-2.2,5.49S69.86,40.11,69.86,40.11Z"/><path class="cls-2" d="M61.93,10l.14-7.6s1.19,1.1,5.19,1.18S73,2.6,73,2.6l-.14,7.59s-1.68,1.05-5.84,1S61.93,10,61.93,10Z"/><path class="cls-2" d="M49.91,52.68l.15-7.59s1.18,1.1,5.19,1.17,5.76-1,5.76-1l-.15,7.6s-1.68,1-5.83,1S49.91,52.68,49.91,52.68Z"/><path class="cls-7" d="M121.65,25.4l.79,7.56s-1.32-1-5.3-.54-5.6,1.67-5.6,1.67l-.78-7.56s1.54-1.24,5.67-1.67S121.65,25.4,121.65,25.4Z"/><path class="cls-9" d="M103.47,6.07l4.8,5.89s-1.62-.07-4.72,2.46-3.77,4.46-3.77,4.46L95,13s.61-1.88,3.83-4.51S103.47,6.07,103.47,6.07Z"/><path class="cls-2" d="M101.45,37.16l-2.54,7.16s-.78-1.42-4.55-2.76-5.77-.91-5.77-.91l2.54-7.16s1.92-.46,5.84.93S101.45,37.16,101.45,37.16Z"/><path class="cls-10" d="M61,184.89c2.64,7.93,2.31,15.53,0,21.47"/><path class="cls-10" d="M86.89,184.89c2.64,7.93,2.31,15.53,0,21.47"/><path class="cls-10" d="M25.21,156.5c-9.09,9.58-19.42,4.62-19.42,4.62"/><path class="cls-10" d="M123.91,156.5c9.09,9.58,19.42,4.62,19.42,4.62"/></g></g></svg>