<svg xmlns="http://www.w3.org/2000/svg" viewBox="0 0 310.56 261.28"><defs><style>.cls-1,.cls-2,.cls-9{fill:#fff;}.cls-1{opacity:0.65;}.cls-2{opacity:0.75;}.cls-3{fill:#ffcdaa;}.cls-4,.cls-6,.cls-7{fill:none;stroke-linecap:round;stroke-miterlimit:10;}.cls-4{stroke:#000;stroke-width:2px;}.cls-5{fill:#ff9169;}.cls-6{stroke:#f4c09d;}.cls-6,.cls-7{stroke-width:5px;}.cls-7{stroke:#ffcdaa;}.cls-8{fill:#ff6c6c;}</style></defs><g id="Layer_2" data-name="Layer 2"><g id="Lager_1" data-name="Lager 1"><path class="cls-1" d="M238.14,208.3c-.28,0-.56,0-.83,0a14.41,14.41,0,0,0-13.62-19.23,14.38,14.38,0,0,0-9.6,3.68,30.75,30.75,0,0,0-59,12.06c0,.4,0,.79,0,1.19a22.78,22.78,0,0,0-3.81-.34,23.32,23.32,0,0,0-2.88,46.47l0,.19h89.76a22,22,0,1,0,0-44.06Z"/><path class="cls-2" d="M114,179.57c-.29,0-.57,0-.85,0a14.92,14.92,0,0,0-24-16.08A31.8,31.8,0,0,0,28.05,176c0,.42,0,.82,0,1.23a24.46,24.46,0,0,0-3.94-.35,24.13,24.13,0,0,0-3,48.07l0,.2H114a22.79,22.79,0,0,0,0-45.58Z"/><path class="cls-1" d="M288.11,187.25c-.28,0-.56,0-.84,0a14.53,14.53,0,0,0,.84-4.87,14.7,14.7,0,0,0-24.5-11,31.33,31.33,0,0,0-60.15,12.29c0,.4,0,.81,0,1.21a23.75,23.75,0,1,0-6.82,47l0,.2h91.46a22.45,22.45,0,0,0,0-44.9Z"/><circle class="cls-3" cx="153.15" cy="131.87" r="59.19"/><path class="cls-4" d="M129.5,110.91c-2.63,5.5-9.12,6.24-12.76,1.21"/><path class="cls-4" d="M187.85,105.76c-2.63,5.5-9.12,6.23-12.77,1.21"/><path class="cls-4" d="M147.66,118.08s7.44.92,10.9-1.14"/><ellipse class="cls-5" cx="110.58" cy="122.59" rx="8.39" ry="4.44" transform="translate(-6.94 6.63) rotate(-3.33)"/><ellipse class="cls-5" cx="194" cy="117.73" rx="8.39" ry="4.44" transform="translate(-6.51 11.47) rotate(-3.33)"/><path class="cls-6" d="M165.54,175.74c3.11,9.32,33.88,5.24,44.35,5.24l2.07-6"/><path class="cls-7" d="M159.69,184.88c3.1,9.33,33.87,5.25,44.34,5.25l2.07-6"/><path class="cls-8" d="M157.92,148.09c-13.33-17.36-41.84-9.84-33.07,18.89,6,19.75,41.27,25.35,41.27,25.35s32.63-20.15,29.83-42.52C192.83,124.81,161.23,125.25,157.92,148.09Z"/><path class="cls-6" d="M210.42,140.29c10.63,11.41-20.25,17.2-20.25,17.2"/><path class="cls-6" d="M98,150.58c-8.09,16.15,32.86,13.55,32.86,13.55"/><path class="cls-9" d="M171,212.38c-.31,0-.61,0-.92,0a16,16,0,0,0-25.77-17.25,34.12,34.12,0,0,0-65.51,13.38c0,.44,0,.88,0,1.32a25.87,25.87,0,1,0-7.43,51.19l0,.22H171a24.45,24.45,0,0,0,0-48.9Z"/><path class="cls-9" d="M209.29,17.07l-.41,0a7.2,7.2,0,0,0-6.8-9.6,7.15,7.15,0,0,0-4.79,1.84,15.34,15.34,0,0,0-29.46,6c0,.19,0,.39,0,.59a10.83,10.83,0,0,0-1.9-.17A11.64,11.64,0,0,0,164.5,39v.1h44.8a11,11,0,1,0,0-22Z"/><path class="cls-9" d="M76.66,55.09c-.17,0-.33,0-.5,0a8.76,8.76,0,0,0-14.1-9.45A18.68,18.68,0,0,0,26.2,53c0,.24,0,.48,0,.72a13.71,13.71,0,0,0-2.32-.21,14.17,14.17,0,0,0-1.75,28.23v.12H76.66a13.39,13.39,0,0,0,0-26.77Z"/></g></g></svg>