<svg xmlns="http://www.w3.org/2000/svg" viewBox="0 0 210.6 201.23"><defs><style>.cls-1,.cls-2{fill:#b0a7d0;}.cls-2,.cls-6{opacity:0.5;}.cls-3,.cls-6{fill:#fdccab;}.cls-4{fill:none;stroke:#000;stroke-linecap:round;stroke-miterlimit:10;stroke-width:0.74px;}.cls-5{fill:#fc906e;}.cls-7{fill:#fff;opacity:0.65;}.cls-8{fill:#6453a2;}</style></defs><g id="Layer_2" data-name="Layer 2"><g id="Lager_1" data-name="Lager 1"><polygon class="cls-1" points="202.16 0 125.32 74.11 122.97 78.72 128.39 76.84 210.6 2.3 202.16 0"/><path class="cls-2" d="M79.4,108.28l15.27,17a6.79,6.79,0,0,1-.31,9.4L24.75,201.23,0,174.18l69.64-66.25A6.78,6.78,0,0,1,79.4,108.28Z"/><circle class="cls-3" cx="109.41" cy="88.88" r="23.88"/><path class="cls-4" d="M94.76,88.6a2.92,2.92,0,0,0,5-1.34"/><path class="cls-4" d="M118,85A2.93,2.93,0,0,0,123,83.49"/><path class="cls-4" d="M107.1,88.67a4.6,4.6,0,0,0,4.16-.66"/><ellipse class="cls-5" cx="93.31" cy="93.38" rx="3.39" ry="1.79" transform="translate(-15.41 18.5) rotate(-10.46)"/><ellipse class="cls-5" cx="126.5" cy="87.48" rx="3.39" ry="1.79" transform="translate(-19.32 38.58) rotate(-16.13)"/><circle class="cls-6" cx="109.41" cy="88.88" r="23.88"/><path class="cls-6" d="M152,99.88a40.21,40.21,0,1,1-40.2-40.2,41.54,41.54,0,0,1,13.85,2.45c4.79,1.71,5.1,4.83,7.68,6.71,2.43,1.77,5.94,1.36,9.54,5.53A38.74,38.74,0,0,1,152,99.88Z"/><path class="cls-7" d="M116.14,63.29c-1-1.79,5.11-1.14,12.56,3,1.35.75,2.85,2.76,4.2,3.72,1.74,1.23,3.89,1.8,5.49,3.39a33.89,33.89,0,0,1,4.39,5.3c9.21,13.89,4.9,30.54.68,30-4.9-.68-.13-12.73-5.21-24C130.6,67.65,117,64.78,116.14,63.29Z"/><path class="cls-8" d="M92.35,48.48s-27.1-1.71-21.92-13.66,17.45-.88,17.45-.88,2.59-12.39,10.74-10S92.35,48.48,92.35,48.48Z"/><path class="cls-1" d="M114.41,44.55s-10.08-14.35-2-16.56,7.49,8.44,7.49,8.44,7.29-3.69,9.37,1.38S114.41,44.55,114.41,44.55Z"/></g></g></svg>