<svg xmlns="http://www.w3.org/2000/svg" viewBox="0 0 224.23 204.06"><defs><style>.cls-1,.cls-11,.cls-12,.cls-2,.cls-3,.cls-4,.cls-8{fill:none;}.cls-1,.cls-2,.cls-3,.cls-4{stroke:#fff;stroke-linejoin:round;}.cls-1,.cls-11,.cls-12,.cls-2,.cls-3,.cls-4,.cls-8,.cls-9{stroke-linecap:round;}.cls-1{stroke-width:3.3px;}.cls-2{stroke-width:3.64px;}.cls-3{stroke-width:2.19px;}.cls-4{stroke-width:2.21px;}.cls-5{fill:#6552a2;}.cls-6{fill:#412d6e;}.cls-7,.cls-9{fill:#ffcdaa;}.cls-8,.cls-9{stroke:#000;}.cls-11,.cls-12,.cls-8,.cls-9{stroke-miterlimit:10;}.cls-8{stroke-width:2px;}.cls-10{fill:#ff9169;}.cls-11{stroke:#ffcdaa;}.cls-11,.cls-12{stroke-width:5px;}.cls-12{stroke:#f4c09d;}.cls-13{fill:#9bcaca;}.cls-14{fill:#379696;}</style></defs><g id="Layer_2" data-name="Layer 2"><g id="Lager_1" data-name="Lager 1"><line class="cls-1" x1="23.18" y1="59.48" x2="23.18" y2="105.19"/><polyline class="cls-1" points="16.23 62.19 23.18 69.19 30.24 62.13"/><polyline class="cls-1" points="16.23 103.16 23.19 96.16 30.24 103.22"/><line class="cls-1" x1="43.12" y1="71.05" x2="3.3" y2="93.52"/><polyline class="cls-1" points="37.34 66.33 34.65 75.83 44.27 78.51"/><polyline class="cls-1" points="1.65 86.47 11.17 89.09 8.49 98.7"/><line class="cls-1" x1="2.91" y1="70.88" x2="42.37" y2="93.96"/><polyline class="cls-1" points="1.74 78.25 11.3 75.79 8.76 66.13"/><polyline class="cls-1" points="37.11 98.93 34.58 89.39 44.23 86.87"/><line class="cls-2" x1="157.55" y1="1.82" x2="157.55" y2="52.18"/><polyline class="cls-2" points="149.89 4.81 157.55 12.52 165.33 4.75"/><polyline class="cls-2" points="149.89 49.94 157.56 42.23 165.33 50"/><line class="cls-2" x1="179.51" y1="14.57" x2="135.65" y2="39.32"/><polyline class="cls-2" points="173.15 9.37 170.19 19.83 180.78 22.78"/><polyline class="cls-2" points="133.84 31.55 144.32 34.44 141.37 45.02"/><line class="cls-2" x1="135.22" y1="14.38" x2="178.69" y2="39.8"/><polyline class="cls-2" points="133.94 22.5 144.46 19.79 141.67 9.15"/><polyline class="cls-2" points="172.9 45.28 170.11 34.77 180.74 31.99"/><line class="cls-3" x1="71.15" y1="1.82" x2="71.15" y2="32.18"/><polyline class="cls-3" points="66.53 3.62 71.15 8.27 75.83 3.58"/><polyline class="cls-3" points="66.53 30.83 71.15 26.18 75.83 30.87"/><line class="cls-3" x1="84.39" y1="9.51" x2="57.95" y2="24.43"/><polyline class="cls-3" points="80.55 6.37 78.77 12.68 85.15 14.46"/><polyline class="cls-3" points="56.85 19.74 63.17 21.48 61.39 27.86"/><line class="cls-3" x1="57.69" y1="9.39" x2="83.89" y2="24.72"/><polyline class="cls-3" points="56.91 14.29 63.26 12.65 61.58 6.24"/><polyline class="cls-3" points="80.4 28.02 78.72 21.69 85.13 20.01"/><line class="cls-4" x1="209.04" y1="94.74" x2="209.04" y2="125.27"/><polyline class="cls-4" points="204.4 96.55 209.04 101.23 213.76 96.51"/><polyline class="cls-4" points="204.4 123.91 209.05 119.24 213.76 123.95"/><line class="cls-4" x1="222.36" y1="102.47" x2="195.77" y2="117.47"/><polyline class="cls-4" points="218.5 99.32 216.71 105.66 223.13 107.45"/><polyline class="cls-4" points="194.67 112.76 201.02 114.51 199.23 120.93"/><line class="cls-4" x1="195.51" y1="102.36" x2="221.86" y2="117.77"/><polyline class="cls-4" points="194.73 107.28 201.11 105.63 199.42 99.18"/><polyline class="cls-4" points="218.35 121.09 216.66 114.72 223.1 113.03"/><path class="cls-5" d="M168.47,147.05s.29,26.14,3.67,29.63,13.86.4,13.86.4-9.65-31.53-14.79-32.79S168.47,147.05,168.47,147.05Z"/><path class="cls-6" d="M169.06,150.6s-.3,22.59,3.08,26.08a6.55,6.55,0,0,0,4.13,1.6,193.21,193.21,0,0,1-5.8-27.21C170.25,149.69,169.06,150.6,169.06,150.6Z"/><path class="cls-5" d="M166.07,149.73s-7.61,25-5.43,29.35,13.61,2.9,13.61,2.9l-4.74-34.07Z"/><circle class="cls-7" cx="116.39" cy="124.58" r="59.19"/><circle cx="86.78" cy="117.84" r="4.25"/><circle cx="145.02" cy="114.45" r="4.25"/><path class="cls-8" d="M110.29,125.59c2.39,4.19,9.52,3.41,11.95-.83"/><path class="cls-9" d="M81.2,123.27c2.38-3.37,7.41-4.35,11.44-1.71"/><path class="cls-9" d="M151,119.09c-2.79-3-7.91-3.38-11.56-.24"/><ellipse class="cls-10" cx="74.86" cy="130.17" rx="8.39" ry="4.44" transform="translate(-7.44 4.57) rotate(-3.33)"/><ellipse class="cls-10" cx="158.29" cy="125.32" rx="8.39" ry="4.44" transform="translate(-7.01 9.41) rotate(-3.33)"/><path class="cls-11" d="M101.2,178.34c2.64,7.93,2.31,15.52,0,21.47"/><path class="cls-11" d="M127.09,178.34c2.64,7.93,2.31,15.52,0,21.47"/><path class="cls-12" d="M68.55,147c3.63,12.64,4,17.73,8.86,24.88"/><path class="cls-12" d="M168.91,144.24a42.85,42.85,0,0,0,2.59,18"/><path class="cls-13" d="M98.77,190.85l-2,13.21h14s1-5.83-4.41-6.05c.22-2.87.89-7.16.89-7.16Z"/><path class="cls-13" d="M124.53,190.85l-2,13.21h14s1-5.83-4.4-6.05c.22-2.87.88-7.16.88-7.16Z"/><circle class="cls-14" cx="95.15" cy="59.1" r="17.53"/><path class="cls-13" d="M173.29,107.81c-32.7-10.13-97.24-1.58-116.06,14.71,0,0-8.5-49.45,50.46-59.26S173.29,107.81,173.29,107.81Z"/><path class="cls-14" d="M173.29,108.2c-32.7-10.13-97.27.19-116.09,16.49,0,0-6.54-11.45-.7-16.54C63.6,102,85.67,94.74,112,90.56s52.4.54,57.82,4.59C174.84,98.92,173.29,108.2,173.29,108.2Z"/><path class="cls-5" d="M59.94,149.69c33,5.77,98.35-5.39,115.92-20.28,0,0,5.35,12.92-.1,17.57-6.63,5.65-26.72,13.45-52.5,19s-50.12,1.93-55.93-.62C60.05,162.13,59.94,149.69,59.94,149.69Z"/><path class="cls-6" d="M176.57,141.83c-2.57,8.06-19.53,14.84-46,19.08-33.68,5.39-68.44-2.58-70.31-9.38C73.94,145.67,178.05,137.21,176.57,141.83Z"/><path class="cls-5" d="M58.57,137.27c26.11,9.52,98.46,2.41,117.15-11,0,0,5.06,11.7-.05,16.72C169.45,149,146.53,155,120.4,158.48s-52.45-1.4-57.85-4.73C57.37,150.56,55.8,138.85,58.57,137.27Z"/></g></g></svg>