<svg xmlns="http://www.w3.org/2000/svg" viewBox="0 0 304.7 290.75"><defs><style>.cls-1{fill:#fff5ae;}.cls-2{opacity:0.2;}.cls-3,.cls-4{fill:#fff;}.cls-4{opacity:0.5;}.cls-10,.cls-11,.cls-5,.cls-7,.cls-9{fill:none;stroke-miterlimit:10;}.cls-5{stroke:#379696;}.cls-10,.cls-11,.cls-5,.cls-9{stroke-linecap:round;}.cls-10,.cls-5,.cls-9{stroke-width:3px;}.cls-6{fill:#ffcdaa;}.cls-11,.cls-7{stroke:#f48e8e;stroke-width:2.75px;}.cls-8{fill:#ff6c6c;}.cls-9{stroke:#ff6c6c;}.cls-10{stroke:#ffcdaa;}.cls-12{fill:#b1a7d2;}.cls-13{fill:#d8d3e8;}</style></defs><g id="Layer_2" data-name="Layer 2"><g id="Lager_1" data-name="Lager 1"><circle class="cls-1" cx="152.63" cy="23.24" r="23.24"/><g class="cls-2"><path d="M141.88,16.55a5.09,5.09,0,0,1-2.63,2,6.81,6.81,0,0,1-3.4.46c-.47-.07-.67.66-.2.72a7.67,7.67,0,0,0,3.88-.49,5.89,5.89,0,0,0,3-2.35.38.38,0,0,0-.65-.38Z"/><path d="M161.82,16.59c1.29,2.56,4.86,3.2,7.32,2.2.45-.18.25-.91-.2-.73-2.17.89-5.32.43-6.47-1.85-.21-.43-.86-.05-.65.38Z"/><path d="M150,24.6a4.89,4.89,0,0,0,3.41.89A3.45,3.45,0,0,0,156.05,24c.21-.43-.43-.81-.65-.38a2.78,2.78,0,0,1-2.19,1.12,4.21,4.21,0,0,1-2.84-.81c-.4-.27-.78.38-.38.65Z"/><path d="M141.66,17.51a6.08,6.08,0,0,1,.93,1,.39.39,0,0,0,.27.11.36.36,0,0,0,.26-.11.33.33,0,0,0,.11-.26v-.1a.37.37,0,0,0-.1-.17,6.08,6.08,0,0,0-.93-1,.41.41,0,0,0-.26-.11.4.4,0,0,0-.27.11.44.44,0,0,0-.11.27.41.41,0,0,0,.11.26Z"/><path d="M140,19a6,6,0,0,1,.31.62l0-.09a3.85,3.85,0,0,1,.2.57.38.38,0,0,0,.73-.2,6.34,6.34,0,0,0-.55-1.28.4.4,0,0,0-.52-.14A.39.39,0,0,0,140,19Z"/><path d="M137.77,19.62V20.7a.38.38,0,0,0,.38.37.38.38,0,0,0,.37-.37V19.62a.38.38,0,0,0-.75,0Z"/><path d="M135.75,19.75c0,.11,0,.22,0,.33s0,.07,0,.1,0-.07,0,0v0a1.16,1.16,0,0,1,0,.18,1.19,1.19,0,0,1-.1.32v0a.26.26,0,0,0,0,.08l-.09.16a.38.38,0,0,0,.14.51.37.37,0,0,0,.51-.13,2.9,2.9,0,0,0,.38-1.55.38.38,0,1,0-.75,0Z"/><path d="M162.07,16.76h0l0-.09a1.34,1.34,0,0,1-.17.31l-.12.17a.61.61,0,0,1-.07.1l0-.05,0,0,0,0c-.09.11-.19.22-.29.32a1.59,1.59,0,0,1-.13.13l-.06.05,0,0,0,0a.44.44,0,0,0-.17.23.42.42,0,0,0,0,.29.37.37,0,0,0,.51.13,3,3,0,0,0,.65-.64,3.13,3.13,0,0,0,.52-.83.37.37,0,0,0,0-.29.39.39,0,0,0-.23-.17.38.38,0,0,0-.29,0,.47.47,0,0,0-.17.22Z"/><path d="M163.67,18.15a3.7,3.7,0,0,0-.24.54l-.21.54,0-.09c0,.08-.08.17-.13.25a.38.38,0,0,0,.65.38,3.59,3.59,0,0,0,.24-.53c.07-.18.13-.36.21-.54l0,.09.12-.26a.37.37,0,0,0-.64-.38Z"/><path d="M166.1,18.94a7,7,0,0,1-.25,1,.37.37,0,0,0,.26.46.38.38,0,0,0,.46-.26,7,7,0,0,0,.25-1,.42.42,0,0,0,0-.29.44.44,0,0,0-.23-.17.38.38,0,0,0-.29,0,.41.41,0,0,0-.17.22Z"/><path d="M168.25,18.9a4.19,4.19,0,0,0,.57,1.21.38.38,0,0,0,.22.17.37.37,0,0,0,.29,0,.37.37,0,0,0,.13-.51,4.58,4.58,0,0,1-.37-.69l0,.09c-.06-.14-.11-.28-.16-.43a.37.37,0,0,0-.46-.26.38.38,0,0,0-.26.46Z"/></g><path class="cls-3" d="M153.73,37.19c-.17,0-.34,0-.5,0a8.76,8.76,0,0,0-14.1-9.45,18.68,18.68,0,0,0-35.86,7.33c0,.24,0,.48,0,.72a13.71,13.71,0,0,0-2.32-.21,14.17,14.17,0,0,0-1.75,28.23V64h54.52a13.39,13.39,0,0,0,0-26.77Z"/><path class="cls-4" d="M157.19,43.54l.38,0a6.79,6.79,0,0,1-.38-2.21,6.66,6.66,0,0,1,6.66-6.66,6.56,6.56,0,0,1,4.42,1.7A14.18,14.18,0,0,1,195.5,42c0,.18,0,.36,0,.54a11.4,11.4,0,0,1,1.76-.15,10.76,10.76,0,0,1,1.33,21.43v.09H157.19a10.16,10.16,0,1,1,0-20.32Z"/><path class="cls-4" d="M283.32,195.67c-.28,0-.54,0-.81,0a15.35,15.35,0,0,0,.81-4.87c0-8.11-6.28-14.69-14-14.69a13.6,13.6,0,0,0-9.32,3.74c-4.55-11.17-15.13-19-27.45-19-16.48,0-29.84,14-29.84,31.27q0,.6,0,1.2A22.64,22.64,0,0,0,199,193a21.85,21.85,0,0,0-14,5.09,10.67,10.67,0,0,0-15.16-.41,23.56,23.56,0,0,0-21.68-15c-12.14,0-22.13,9.62-23.42,22a21.11,21.11,0,0,0-17.8-10c-.27,0-.54,0-.8.05a15.35,15.35,0,0,0,.8-4.87c0-8.11-6.28-14.69-14-14.69a13.6,13.6,0,0,0-9.32,3.74c-4.55-11.17-15.13-19-27.45-19-16.48,0-29.84,14-29.84,31.27q0,.6,0,1.2a21.57,21.57,0,0,0-3.7-.34C10.14,192,0,202.65,0,215.76c0,12.11,8.67,22.09,19.85,23.53l0,.2H107c.52,0,1,0,1.55-.06a17.63,17.63,0,0,0,11,6l0,.16h68.8a16.45,16.45,0,0,0,11.82-5.07h83.22c11.81,0,21.38-10,21.38-22.41S295.13,195.67,283.32,195.67Z"/><path class="cls-3" d="M133.87,237.74c-.25,0-.49,0-.73,0a14,14,0,0,0,.73-4.42c0-7.38-5.7-13.35-12.74-13.35a12.35,12.35,0,0,0-8.47,3.4,27.1,27.1,0,0,0-24.94-17.27c-15,0-27.12,12.72-27.12,28.41,0,.37,0,.73,0,1.1a19.74,19.74,0,0,0-3.37-.32c-11.36,0-20.58,9.66-20.58,21.57,0,11,7.88,20.07,18,21.39l0,.18h79.17c10.73,0,19.43-9.12,19.43-20.37S144.6,237.74,133.87,237.74Z"/><path class="cls-3" d="M266.37,235.69c-.24,0-.47,0-.71,0a13.69,13.69,0,0,0,.71-4.33c0-7.21-5.58-13.06-12.47-13.06a12.08,12.08,0,0,0-8.29,3.32,26.57,26.57,0,0,0-24.43-16.91c-14.66,0-26.55,12.46-26.55,27.83,0,.36,0,.71,0,1.07a18.93,18.93,0,0,0-3.3-.31c-11.13,0-20.15,9.46-20.15,21.12,0,10.78,7.71,19.65,17.66,20.94l0,.18h77.52c10.51,0,19-8.93,19-19.94S276.88,235.69,266.37,235.69Z"/><path class="cls-3" d="M197.71,260.59c-.19,0-.36,0-.54,0a10.44,10.44,0,0,0,.54-3.28,9.67,9.67,0,0,0-9.44-9.88A9.14,9.14,0,0,0,182,250a20.09,20.09,0,0,0-18.48-12.79c-11.09,0-20.08,9.42-20.08,21.05,0,.27,0,.54,0,.81a14.59,14.59,0,0,0-2.49-.23c-8.42,0-15.25,7.15-15.25,16,0,8.15,5.84,14.87,13.37,15.84l0,.13h58.64c7.95,0,14.39-6.75,14.39-15.08S205.66,260.59,197.71,260.59Z"/><line class="cls-5" x1="47.26" y1="23.17" x2="78.16" y2="186.64"/><line class="cls-5" x1="266.54" y1="23.17" x2="235.65" y2="186.64"/><circle class="cls-6" cx="183.75" cy="150.78" r="45.92"/><path class="cls-7" d="M67.87,140.58c-4.79,1,.17,9.85,7.52,9.24"/><path class="cls-8" d="M124.1,126.21c-16.68-20-56.64-15.19-48.63,26.65,5.5,28.76,54.34,42,54.34,42s49.06-23.47,48.5-55.43C177.69,103.71,136.16,99.29,124.1,126.21Z"/><path class="cls-9" d="M117.85,186.64c8.58,6.18,6.94,21,6.94,21l1.58,1.84"/><path class="cls-9" d="M128.14,186.64c8.57,6.18,8.81,20.49,8.81,20.49l1.58,1.83"/><path class="cls-10" d="M192.29,185.64c-8.57,6.18-7.74,21-7.74,21l-1.5,2.33"/><path class="cls-10" d="M174.26,185.75c-8.57,6.18-8.8,20.48-8.8,20.48l-1.24,2"/><path class="cls-10" d="M225,165.51c3.3,5.18,1.32,14.53,1.32,14.53"/><path class="cls-11" d="M177.61,141.73s6.8,3.26,15.81-3.3"/><rect class="cls-12" x="71.99" y="186.64" width="168.7" height="7.49"/><polygon class="cls-13" points="240.69 194.13 71.99 194.13 89.24 200.19 223.44 200.19 240.69 194.13"/></g></g></svg>