<svg xmlns="http://www.w3.org/2000/svg" xmlns:xlink="http://www.w3.org/1999/xlink" viewBox="0 0 161.94 201.09"><defs><style>.cls-1,.cls-3{fill:none;}.cls-2{fill:#ffcdaa;}.cls-3{stroke:#000;stroke-linecap:round;stroke-miterlimit:10;stroke-width:2px;}.cls-4{fill:#ff9169;}.cls-5{fill:#6450a5;}.cls-6{clip-path:url(#clip-path);}.cls-7{fill:#b1a7d2;}.cls-8{fill:#fff;}.cls-9{fill:#9bcaca;}</style><clipPath id="clip-path"><polygon class="cls-1" points="98.59 77.83 140.09 42.26 129.73 99.26 98.59 77.83"/></clipPath></defs><g id="Layer_2" data-name="Layer 2"><g id="Lager_1" data-name="Lager 1"><circle class="cls-2" cx="82.98" cy="131.16" r="59.19"/><path class="cls-3" d="M69.88,129.23a25.29,25.29,0,0,0,24.29,0"/><ellipse class="cls-4" cx="41.19" cy="134.33" rx="8.39" ry="4.44"/><ellipse class="cls-4" cx="124.76" cy="134.33" rx="8.39" ry="4.44"/><circle cx="53.81" cy="122.71" r="4.25"/><circle cx="112.15" cy="122.71" r="4.25"/><polygon class="cls-5" points="98.59 77.83 140.09 42.26 129.73 99.26 98.59 77.83"/><g class="cls-6"><rect class="cls-7" x="119.87" y="54.82" width="31.35" height="5.83" transform="translate(123.29 -89.09) rotate(62.16)"/><rect class="cls-7" x="108.94" y="65.7" width="37.88" height="5.83" transform="translate(128.83 -76.51) rotate(62.16)"/><rect class="cls-7" x="96.44" y="76.58" width="47.55" height="5.83" transform="translate(134.36 -63.93) rotate(62.16)"/><rect class="cls-7" x="90.91" y="83.92" width="39.53" height="5.83" transform="translate(135.76 -51.59) rotate(62.16)"/></g><path class="cls-8" d="M65.57,174.87l-.49,0A8.58,8.58,0,0,0,57,163.45a8.5,8.5,0,0,0-5.71,2.19,18.3,18.3,0,0,0-35.13,7.17c0,.24,0,.47,0,.71a14.09,14.09,0,0,0-2.27-.2A13.88,13.88,0,0,0,12.17,201v.12H65.57a13.11,13.11,0,1,0,0-26.22Z"/><path class="cls-8" d="M151.8,174.87l-.38,0a6.4,6.4,0,0,0,.38-2.2,6.64,6.64,0,0,0-6.64-6.64,6.57,6.57,0,0,0-4.41,1.69,14.15,14.15,0,0,0-27.16,5.55c0,.18,0,.36,0,.54a11.29,11.29,0,0,0-1.76-.15,10.73,10.73,0,0,0-1.32,21.37v.09H151.8a10.14,10.14,0,1,0,0-20.27Z"/><path class="cls-8" d="M82.53,15.34l-.37,0a6.6,6.6,0,0,0,.37-2.15A6.47,6.47,0,0,0,71.74,8.38a13.8,13.8,0,0,0-26.49,5.41c0,.18,0,.36,0,.54a9.71,9.71,0,0,0-1.71-.16A10.47,10.47,0,0,0,42.26,35v.09H82.53a9.89,9.89,0,0,0,0-19.77Z"/><path class="cls-7" d="M24.11,57H16.52s1.07-1.21,1.07-5.22-1.07-5.74-1.07-5.74h7.59s1.08,1.66,1.08,5.82S24.11,57,24.11,57Z"/><path class="cls-9" d="M45.22,40.92l-6.36,4.17s.24-1.6-2-5-4-4.21-4-4.21l6.36-4.17s1.81.8,4.09,4.28S45.22,40.92,45.22,40.92Z"/><path class="cls-2" d="M14.51,35.7,7.65,32.43s1.49-.63,3.22-4.24,1.49-5.65,1.49-5.65l6.86,3.27s.26,2-1.53,5.72S14.51,35.7,14.51,35.7Z"/><path class="cls-7" d="M54.15,27.54,51,20.62s1.54.48,5.19-1.17S61,16.09,61,16.09L64.12,23s-1.06,1.67-4.85,3.39S54.15,27.54,54.15,27.54Z"/><path class="cls-9" d="M77.51,40.11,71.1,36s1.55-.44,3.7-3.82S77,26.79,77,26.79l6.42,4.07s0,2-2.21,5.49S77.51,40.11,77.51,40.11Z"/><path class="cls-2" d="M69.58,10l.15-7.6s1.18,1.1,5.19,1.18,5.76-1,5.76-1l-.15,7.59s-1.68,1.05-5.83,1S69.58,10,69.58,10Z"/><path class="cls-2" d="M57.56,52.68l.15-7.59s1.18,1.1,5.19,1.17,5.76-1,5.76-1l-.15,7.6s-1.68,1-5.83,1S57.56,52.68,57.56,52.68Z"/><path class="cls-7" d="M129.3,25.4l.79,7.56s-1.31-1-5.3-.54-5.6,1.67-5.6,1.67l-.78-7.56s1.54-1.24,5.67-1.67S129.3,25.4,129.3,25.4Z"/><path class="cls-9" d="M111.12,6.07l4.8,5.89s-1.62-.07-4.72,2.46-3.77,4.46-3.77,4.46L102.63,13s.61-1.88,3.83-4.51S111.12,6.07,111.12,6.07Z"/><path class="cls-2" d="M109.1,37.16l-2.54,7.16s-.78-1.42-4.55-2.76-5.77-.91-5.77-.91l2.54-7.16s1.92-.46,5.84.93S109.1,37.16,109.1,37.16Z"/></g></g></svg>