<svg xmlns="http://www.w3.org/2000/svg" xmlns:xlink="http://www.w3.org/1999/xlink" viewBox="0 0 266.18 253.96"><defs><style>.cls-1,.cls-10,.cls-7,.cls-9{fill:none;}.cls-2{fill:#b1a7d2;}.cls-3{fill:#ed6464;}.cls-4{fill:#ff6c6c;}.cls-5{clip-path:url(#clip-path);}.cls-6{fill:#ffcdaa;}.cls-7{stroke:#000;stroke-width:2px;}.cls-10,.cls-7,.cls-9{stroke-linecap:round;stroke-miterlimit:10;}.cls-8{fill:#ff9169;}.cls-9{stroke:#ff6c6c;}.cls-10,.cls-9{stroke-width:5px;}.cls-10{stroke:#ffcdaa;}.cls-11{fill:#fffee6;}.cls-12{fill:#fff;opacity:0.5;}</style><clipPath id="clip-path"><circle class="cls-1" cx="144.78" cy="133.1" r="59.19"/></clipPath></defs><g id="Layer_2" data-name="Layer 2"><g id="Lager_1" data-name="Lager 1"><path class="cls-2" d="M159.56,196.91,228,239.64s-58.14,32.22-138.11,0Z"/><path class="cls-3" d="M95.54,138.2S50.16,146.55,49,186.11c10.82-.59,14.26,2,19.63,10,6.28,9.33,15.34,3.73,22.88,17.09,6.44-19.94,12-30.26,32.45-48.52C145.89,145.11,95.54,138.2,95.54,138.2Z"/><path class="cls-4" d="M91.41,139.21c-11.2,3.17-41.47,14.68-42.42,46.9.53,0,1,0,1.52-.05,5.15-23,40.41-37.07,40.41-37.07Z"/><circle class="cls-4" cx="144.78" cy="133.1" r="59.19"/><g class="cls-5"><ellipse class="cls-6" cx="138.59" cy="93.29" rx="115.16" ry="60.57" transform="translate(-12.14 21.24) rotate(-8.4)"/></g><path class="cls-7" d="M131.54,133.11a25.29,25.29,0,0,0,24-3.55"/><ellipse class="cls-8" cx="103.9" cy="142.34" rx="8.39" ry="4.44" transform="matrix(0.99, -0.15, 0.15, 0.99, -19.67, 16.7)"/><ellipse class="cls-8" cx="186.58" cy="130.14" rx="8.39" ry="4.44" transform="translate(-17 28.64) rotate(-8.4)"/><circle cx="114.68" cy="129.01" r="4.25"/><circle cx="172.4" cy="120.49" r="4.25"/><path class="cls-9" d="M132.37,189.63c2.17,6.38.6,15.05-1.54,24.28"/><path class="cls-9" d="M173.27,184c15.19,3,5.59,17.71,3.63,21.31"/><path class="cls-10" d="M89.21,150.34c-16.51,17.34,5,17.34,5,17.34"/><path class="cls-10" d="M200.41,128.51c17.07.57,17.07-27.14,17.07-27.14"/><path class="cls-11" d="M146.73,166.89a8.39,8.39,0,0,1,3.8-1.94,7,7,0,0,1,4.58.91c.28-1.84,1.5-5.81,3.08-6.62-3.16-1-5.85,1.8-5.85,1.8s-1.69-4.77-5.32-5.17a24.57,24.57,0,0,1,.14,6.14,13.15,13.15,0,0,0-5.31.91A11.72,11.72,0,0,1,146.73,166.89Z"/><path class="cls-11" d="M160.37,175.84c.71,4.83-2.19,9.26-6.48,9.89s-8.35-2.77-9.07-7.59,2-10.5,6.3-11.13S159.65,171,160.37,175.84Z"/><polygon class="cls-4" points="140.73 182.69 139.87 181.74 159.36 164.91 160.22 165.85 140.73 182.69"/><polygon class="cls-4" points="144.23 190.8 143.32 189.9 164.77 169.27 165.69 170.17 144.23 190.8"/><polygon class="cls-4" points="166.37 179.58 142.7 168.94 143.25 167.79 166.91 178.44 166.37 179.58"/><polygon class="cls-4" points="165.42 188.33 138.76 174.61 139.36 173.49 166.03 187.21 165.42 188.33"/><path class="cls-12" d="M66.93,69.88c-.17,0-.34,0-.5,0a8.77,8.77,0,0,0-14.11-9.45,18.68,18.68,0,0,0-35.85,7.33c0,.24,0,.48,0,.72a13.71,13.71,0,0,0-2.32-.21,14.17,14.17,0,0,0-1.75,28.23v.12H66.93a13.39,13.39,0,0,0,0-26.77Z"/><path class="cls-12" d="M256.29,31.19l-.37,0a6.35,6.35,0,0,0,.37-2.15,6.47,6.47,0,0,0-10.78-4.83A13.8,13.8,0,0,0,219,29.64c0,.18,0,.36,0,.54a9.62,9.62,0,0,0-1.71-.16A10.46,10.46,0,0,0,216,50.87V51h40.27a9.89,9.89,0,1,0,0-19.77Z"/><path class="cls-11" d="M161.63,68a17.61,17.61,0,0,0-15.51-15.51s14.07-2,15.51-15.51c1.7,12.62,15.51,15.51,15.51,15.51S164.08,52.88,161.63,68Z"/><path class="cls-11" d="M118.06,50.79a11.21,11.21,0,0,0-9.88-9.88s9-1.27,9.88-9.89c1.08,8,9.88,9.89,9.88,9.89S119.61,41.16,118.06,50.79Z"/><path class="cls-11" d="M141.32,24.56A13.94,13.94,0,0,0,129,12.28S140.18,10.7,141.32,0c1.35,10,12.29,12.28,12.29,12.28S143.26,12.6,141.32,24.56Z"/></g></g></svg>