<svg xmlns="http://www.w3.org/2000/svg" xmlns:xlink="http://www.w3.org/1999/xlink" viewBox="0 0 131.82 160.46"><defs><style>.cls-1,.cls-3{fill:none;}.cls-2{fill:#ffcdaa;}.cls-3{stroke:#000;stroke-linecap:round;stroke-miterlimit:10;stroke-width:2px;}.cls-4{fill:#ff9169;}.cls-5{fill:#6450a5;}.cls-6{clip-path:url(#clip-path);}.cls-7{fill:#b1a7d2;}</style><clipPath id="clip-path"><polygon class="cls-1" points="81.05 38.54 126.02 0 114.79 61.76 81.05 38.54"/></clipPath></defs><g id="Layer_2" data-name="Layer 2"><g id="Lager_1" data-name="Lager 1"><circle class="cls-2" cx="64.14" cy="96.32" r="64.14"/><path class="cls-3" d="M57.37,94.76a11.79,11.79,0,0,0,11.32,0"/><ellipse class="cls-4" cx="18.86" cy="99.76" rx="9.1" ry="4.81"/><ellipse class="cls-4" cx="109.41" cy="99.76" rx="9.1" ry="4.81"/><circle cx="32.53" cy="87.17" r="4.6"/><circle cx="95.75" cy="87.17" r="4.6"/><polygon class="cls-5" points="81.05 38.54 126.02 0 114.79 61.76 81.05 38.54"/><g class="cls-6"><rect class="cls-7" x="104.11" y="13.61" width="33.97" height="6.31" transform="translate(79.36 -98.14) rotate(62.16)"/><rect class="cls-7" x="92.27" y="25.4" width="41.04" height="6.31" transform="translate(85.36 -84.52) rotate(62.16)"/><rect class="cls-7" x="78.73" y="37.19" width="51.52" height="6.31" transform="translate(91.36 -70.89) rotate(62.16)"/><rect class="cls-7" x="72.74" y="45.13" width="42.83" height="6.31" transform="translate(92.88 -57.52) rotate(62.16)"/></g></g></g></svg>