<svg xmlns="http://www.w3.org/2000/svg" xmlns:xlink="http://www.w3.org/1999/xlink" viewBox="0 0 228.25 212.65"><defs><style>.cls-1,.cls-16,.cls-17{fill:none;}.cls-2,.cls-3{fill:#fff;}.cls-2{opacity:0.5;}.cls-4{fill:#9bcaca;}.cls-5{fill:#379696;}.cls-6{fill:#ffcdaa;}.cls-7{fill:#fcae8c;}.cls-8{fill:#094b4f;}.cls-9{clip-path:url(#clip-path);}.cls-10{fill:#fffbf7;}.cls-11{fill:#ff9169;}.cls-12{fill:#d8d3e8;}.cls-13{fill:#e26161;}.cls-14{fill:#ff6c6c;}.cls-15{fill:#b1a7d2;}.cls-16{stroke:#f4c09d;stroke-width:2.74px;}.cls-16,.cls-17{stroke-linecap:round;stroke-miterlimit:10;}.cls-17{stroke:#ffcdaa;stroke-width:2.88px;}</style><clipPath id="clip-path"><path id="Path_194" data-name="Path 194" class="cls-1" d="M111.36,65.45a25.93,25.93,0,0,1,9.08-19.71,8.52,8.52,0,0,1,11.08,0,26,26,0,0,1,9.08,19.71v52.08H111.36Z"/></clipPath></defs><g id="Layer_2" data-name="Layer 2"><g id="Lager_1" data-name="Lager 1"><path class="cls-2" d="M59.14,179.74l.33,0a5.66,5.66,0,0,1-.33-1.9,5.72,5.72,0,0,1,9.54-4.26,12.19,12.19,0,0,1,23.4,4.78c0,.15,0,.31,0,.47a8.31,8.31,0,0,1,1.51-.14,9.25,9.25,0,0,1,1.14,18.43v.07H59.14a8.74,8.74,0,0,1,0-17.47Z"/><path class="cls-2" d="M182.29,184.66H182a4.66,4.66,0,0,0-7.5-5,9.94,9.94,0,0,0-19.09,3.9c0,.13,0,.26,0,.39a7.12,7.12,0,0,0-1.23-.11,7.54,7.54,0,0,0-.93,15v.06h29a7.12,7.12,0,0,0,0-14.24Z"/><path class="cls-2" d="M123.84,191.77h-.24a4.13,4.13,0,0,0-6.64-4.45,8.79,8.79,0,0,0-16.88,3.45c0,.12,0,.23,0,.34A6.59,6.59,0,0,0,99,191a6.67,6.67,0,0,0-.82,13.29v.06h25.67a6.3,6.3,0,0,0,0-12.6Z"/><path class="cls-2" d="M155.91,189.87l-.22,0a3.62,3.62,0,0,0,.22-1.23A3.71,3.71,0,0,0,152.2,185a3.66,3.66,0,0,0-2.46,1A7.88,7.88,0,0,0,134.6,189c0,.1,0,.2,0,.3a6.37,6.37,0,0,0-1-.08,6,6,0,0,0-.74,11.92v.05h23a5.66,5.66,0,0,0,0-11.31Z"/><path class="cls-2" d="M114.4,194.85h-.25a4.36,4.36,0,0,0-7-4.7,9.3,9.3,0,0,0-17.85,3.64c0,.12,0,.24,0,.36a7.23,7.23,0,0,0-1.15-.1,7.05,7.05,0,0,0-.87,14.05v.06H114.4a6.66,6.66,0,1,0,0-13.32Z"/><path class="cls-3" d="M140.48,202.63h-.19a3.23,3.23,0,0,0,.19-1.08,3.28,3.28,0,0,0-3.28-3.28,3.24,3.24,0,0,0-2.18.83,7,7,0,0,0-13.41,2.74v.27a4.91,4.91,0,0,0-.86-.08,5.3,5.3,0,0,0-.66,10.56v.05h20.39a5,5,0,1,0,0-10Z"/><path class="cls-3" d="M44.29,189.86l.38,0a6.65,6.65,0,0,1,10.7-7.17,14.16,14.16,0,0,1,27.19,5.56c0,.18,0,.36,0,.54a11.4,11.4,0,0,1,1.76-.15,10.74,10.74,0,0,1,1.33,21.4v.09H44.29a10.15,10.15,0,1,1,0-20.29Z"/><path class="cls-2" d="M172.31,182.28l.42,0a7.52,7.52,0,0,1-.42-2.43,7.32,7.32,0,0,1,12.21-5.46,15.6,15.6,0,0,1,30,6.12c0,.2,0,.4,0,.6a11.17,11.17,0,0,1,1.93-.17,11.84,11.84,0,0,1,1.47,23.59v.09H172.31a11.18,11.18,0,0,1,0-22.36Z"/><path class="cls-3" d="M161.36,196.44h-.22a3.82,3.82,0,0,0-6.15-4.12,8.15,8.15,0,0,0-15.64,3.19c0,.11,0,.21,0,.32a5.58,5.58,0,0,0-1-.09,6.18,6.18,0,0,0-.76,12.31v.05h23.78a5.84,5.84,0,1,0,0-11.67Z"/><path class="cls-3" d="M200.52,193.6h-.28a5,5,0,0,0-8-5.35,10.59,10.59,0,0,0-20.33,4.15c0,.14,0,.27,0,.41a8.2,8.2,0,0,0-1.32-.12,8,8,0,0,0-1,16v.07h30.92a7.59,7.59,0,0,0,0-15.18Z"/><path class="cls-2" d="M121.65,149.46C117.39,202.36,64.36,203,64.36,203H186.68s-53.29-5.22-57.34-53.55C128.06,139.73,122.79,139.65,121.65,149.46Z"/><path class="cls-3" d="M123.23,149.46C120.72,202.36,89.36,203,89.36,203h72.32s-31.51-5.22-33.9-53.55C127,139.73,123.9,139.65,123.23,149.46Z"/><g id="Group_112" data-name="Group 112"><path id="Path_192" data-name="Path 192" class="cls-4" d="M124.57.5a1.73,1.73,0,0,1,3,1.23V35a1.73,1.73,0,1,1-3.46.22V1.73a1.72,1.72,0,0,1,.5-1.22Z"/><path id="Path_193" data-name="Path 193" class="cls-5" d="M120.38,45.4V38.79A3.63,3.63,0,0,1,124,35.16h3.93a3.64,3.64,0,0,1,3.64,3.63V45.4"/><path id="Path_194-2" data-name="Path 194" class="cls-6" d="M111.36,65.45a25.93,25.93,0,0,1,9.08-19.71,8.52,8.52,0,0,1,11.08,0,26,26,0,0,1,9.08,19.71v52.08H111.36Z"/><path id="Path_195" data-name="Path 195" class="cls-7" d="M117.88,117.53V65.45A26,26,0,0,1,127,45.74a8.74,8.74,0,0,1,2.28-1.4,8.52,8.52,0,0,0-8.81,1.4,26,26,0,0,0-9.08,19.71v52.09Z"/><path id="Path_196" data-name="Path 196" class="cls-4" d="M111.36,84.68s4.31-4.81,14.63-.89,14.62,0,14.62,0V65.44a26,26,0,0,0-9.08-19.72,8.52,8.52,0,0,0-11.08,0,26,26,0,0,0-9.08,19.72Z"/><path id="Path_197" data-name="Path 197" class="cls-5" d="M117.87,82.25V65.43a25.94,25.94,0,0,1,9.07-19.71,8.74,8.74,0,0,1,2.28-1.4,8.56,8.56,0,0,0-8.81,1.4,26,26,0,0,0-9.08,19.71V84.66A9.42,9.42,0,0,1,117.87,82.25Z"/><path id="Path_199" data-name="Path 199" class="cls-8" d="M111,123.09v-5.55h-4a2.78,2.78,0,0,0-.1,5.55H111Z"/><path id="Path_200" data-name="Path 200" class="cls-4" d="M136.32,123.09v20.69H115.63l0-20.7Z"/><path id="Path_198" data-name="Path 198" class="cls-5" d="M106.92,117.54H145a2.74,2.74,0,0,1,2.71,2.72v.12A2.74,2.74,0,0,1,145,123.1h-38.1a2.75,2.75,0,0,1-2.72-2.72v-.12a2.75,2.75,0,0,1,2.72-2.72Z"/><path id="Path_191" data-name="Path 191" class="cls-5" d="M112.39,143.72l27.18,0a2.21,2.21,0,0,1,2.21,2.19V146a2.19,2.19,0,0,1-2.18,2.21H112.41A2.2,2.2,0,0,1,110.2,146v-.13A2.22,2.22,0,0,1,112.39,143.72Z"/><path id="Path_201" data-name="Path 201" class="cls-5" d="M136.31,143.79v-3.51H125.45a4.07,4.07,0,0,1-4.08-4.07h0V123.11h14.94l-20.7,0v20.68Z"/><g class="cls-9"><g id="Group_105" data-name="Group 105"><path id="Path_202" data-name="Path 202" class="cls-10" d="M132,106.1a1.68,1.68,0,0,1,1.22-.5h7.21a1.73,1.73,0,0,1,0,3.46h-7.21a1.74,1.74,0,0,1-1.73-1.74,1.69,1.69,0,0,1,.51-1.22Z"/><path id="Path_203" data-name="Path 203" class="cls-10" d="M132,97.49a1.78,1.78,0,0,1,1.23-.51h7.2a1.73,1.73,0,1,1,.22,3.46.81.81,0,0,1-.22,0H133.2a1.74,1.74,0,0,1-1.73-1.73,1.78,1.78,0,0,1,.51-1.22Z"/><path id="Path_204" data-name="Path 204" class="cls-10" d="M125.5,88.89a1.69,1.69,0,0,1,1.22-.51h13.7a1.73,1.73,0,1,1,.22,3.46H126.71a1.73,1.73,0,0,1-1.22-3Z"/><path id="Path_205" data-name="Path 205" class="cls-10" d="M132,80.28a1.69,1.69,0,0,1,1.22-.51h7.21a1.73,1.73,0,0,1,0,3.46h-7.21a1.74,1.74,0,0,1-1.73-1.74,1.69,1.69,0,0,1,.51-1.21Z"/><path id="Path_206" data-name="Path 206" class="cls-10" d="M132,71.67a1.73,1.73,0,0,1,1.23-.51h7.2a1.73,1.73,0,1,1,.22,3.46h-7.42a1.74,1.74,0,0,1-1.74-1.74,1.8,1.8,0,0,1,.51-1.22Z"/><path id="Path_207" data-name="Path 207" class="cls-10" d="M125.5,63.06a1.72,1.72,0,0,1,1.23-.5h13.69a1.73,1.73,0,0,1,0,3.46H126.73a1.74,1.74,0,0,1-1.23-3Z"/></g></g></g><circle class="cls-6" cx="34.08" cy="163.08" r="34.08"/><ellipse class="cls-11" cx="13.04" cy="159.99" rx="4.83" ry="2.56" transform="translate(-18.47 2.59) rotate(-6.66)"/><ellipse class="cls-11" cx="60.82" cy="154.41" rx="4.83" ry="2.56" transform="translate(-17.5 8.1) rotate(-6.66)"/><circle cx="19.47" cy="152.51" r="2.45"/><circle cx="52.83" cy="148.61" r="2.45"/><ellipse cx="36.7" cy="154.79" rx="1.71" ry="2.41" transform="translate(-17.71 5.3) rotate(-6.66)"/><polygon class="cls-12" points="57.45 185.03 37.17 188.12 39.27 182.21 53.69 180 57.45 185.03"/><rect class="cls-13" x="40.62" y="179.79" width="11.76" height="2.99" transform="translate(-26.8 9.08) rotate(-8.67)"/><ellipse class="cls-13" cx="46.73" cy="182.76" rx="5.88" ry="1.89" transform="translate(-27.02 9.13) rotate(-8.67)"/><ellipse class="cls-14" cx="46.29" cy="179.9" rx="5.88" ry="1.89" transform="translate(-26.59 9.04) rotate(-8.67)"/><rect class="cls-15" x="37.39" y="186.55" width="20.51" height="4.39" transform="translate(-27.91 9.34) rotate(-8.67)"/><path class="cls-16" d="M67.44,170.06c1.63,4.15-4.23,15.59-9.68,17"/><path class="cls-16" d="M18.11,175.88c4.75,2,20.44-3.8,26.85,2.91"/><path class="cls-17" d="M23.85,193.78A24.35,24.35,0,0,0,22,206.33"/><path class="cls-17" d="M42.54,194a25.09,25.09,0,0,1,1,12.17"/></g></g></svg>