<svg xmlns="http://www.w3.org/2000/svg" xmlns:xlink="http://www.w3.org/1999/xlink" viewBox="0 0 175.27 244.28"><defs><style>.cls-1,.cls-12,.cls-15,.cls-16,.cls-3,.cls-9{fill:none;}.cls-2{clip-path:url(#clip-path);}.cls-3{stroke:#379696;stroke-width:2.06px;}.cls-12,.cls-15,.cls-16,.cls-3,.cls-9{stroke-miterlimit:10;}.cls-4{fill:#9bcaca;}.cls-5{fill:#379696;}.cls-6{fill:#fff;}.cls-7{fill:#eff9f8;}.cls-8{fill:#e2f2f1;}.cls-9{stroke:#e2f2f1;stroke-width:1.81px;}.cls-10{fill:#ffe6f4;}.cls-11{fill:#ffc9e4;}.cls-12,.cls-15{stroke:#000;}.cls-12,.cls-15,.cls-16{stroke-linecap:round;}.cls-12{stroke-width:0.85px;}.cls-13{fill:#ffcdaa;}.cls-14{fill:#ff9169;}.cls-15{stroke-width:0.95px;}.cls-16{stroke:#ffcdaa;stroke-width:2.86px;}</style><clipPath id="clip-path" transform="translate(-61.55 5.23)"><circle class="cls-1" cx="145.48" cy="145.48" r="145.48"/></clipPath></defs><g id="Layer_2" data-name="Layer 2"><g id="Lager_1" data-name="Lager 1"><g class="cls-2"><rect class="cls-3" x="70.58" y="1.03" width="19.65" height="52.03" rx="9.82"/><rect class="cls-4" x="68.69" y="31.33" width="23.43" height="23.43" rx="11.71"/><polygon class="cls-5" points="87.45 57.91 73.36 57.91 77.01 38.75 83.8 38.75 87.45 57.91"/><path class="cls-5" d="M220.93,238.59l14.44-8.78a3,3,0,0,0,1.44-2.56V59.31a3,3,0,0,0-2.12-2.87L219.94,52Z" transform="translate(-61.55 5.23)"/><rect class="cls-4" y="57.14" width="160.81" height="187.14" rx="3"/><rect class="cls-6" x="8.4" y="65.68" width="144" height="170.05"/><polygon class="cls-7" points="21.28 226.13 8.4 235.73 8.4 65.68 21.69 65.68 21.28 226.13"/><polygon class="cls-8" points="8.4 235.73 21.28 226.13 152.41 226.46 152.41 235.73 8.4 235.73"/><rect class="cls-9" x="82.47" y="92.03" width="61.59" height="90.11" rx="14.13"/><ellipse class="cls-10" cx="98.98" cy="115.02" rx="3.63" ry="2.23"/><ellipse class="cls-10" cx="128.21" cy="115.02" rx="3.63" ry="2.23"/><path class="cls-11" d="M175.79,98.69c7,0,9,2.54,9,2.54A49.81,49.81,0,0,1,193,99.72a5.42,5.42,0,0,1,5.22,6.07c-.39,3-5.3,7.45-8.15,6.59l1.35-1.46-1.63-1.1,1.46-1.31-1.42-1.34a5.14,5.14,0,0,1,3,1.06c1.22,1.06,3.34-1.47,3.34-2.81a3.54,3.54,0,0,0-3.74-3.42c-2.57.12-5.22,1.51-5.79,3.42s-1.26,6.8-2.72,9.93-4.34,7.77-5.68,8.82-.21,3.48-2.94,3.56-1.8-2.39-2.78-3.34-3.18-2.52-5.9-8.63a25.18,25.18,0,0,1-2.57-9.77c-.28-1.43-2.85-4-6.06-4s-3.83,2.36-3.75,3.42,1.3,3,2.56,3,2-1.26,3.55-1.18a8.9,8.9,0,0,1-1.51,1.79l1.71.69-1.67,1.1a5.89,5.89,0,0,0,1.79,1.43c-1.26.85-7.94-1.67-8.54-6.51-.65-5.22,4.55-5.94,6-5.91a58.6,58.6,0,0,1,7.49,1.47S168.76,98.69,175.79,98.69Z" transform="translate(-61.55 5.23)"/><path d="M174.26,113h2.33a.33.33,0,0,1,.33.36,1.51,1.51,0,0,1-3,0A.32.32,0,0,1,174.26,113Z" transform="translate(-61.55 5.23)"/><path class="cls-12" d="M169.12,112.17a1.42,1.42,0,0,1,2.83.13" transform="translate(-61.55 5.23)"/><path class="cls-12" d="M178.74,112.17a1.42,1.42,0,0,1,2.83.13" transform="translate(-61.55 5.23)"/><polygon class="cls-8" points="121.1 159.09 106.74 159.09 113.92 170.94 121.1 159.09"/><polygon class="cls-5" points="121.1 153.63 106.74 153.63 113.92 141.78 121.1 153.63"/><circle class="cls-13" cx="59.34" cy="181.73" r="39.8"/><ellipse class="cls-14" cx="95.86" cy="179.2" rx="5.64" ry="2.98" transform="translate(-98.36 30.48) rotate(-12.61)"/><ellipse class="cls-14" cx="150.7" cy="166.93" rx="5.64" ry="2.98" transform="translate(-94.36 42.16) rotate(-12.61)"/><path class="cls-15" d="M117.38,170.58a16.79,16.79,0,0,0,8-1.69" transform="translate(-61.55 5.23)"/><circle cx="40.88" cy="174.95" r="2.86"/><circle cx="79.17" cy="166.38" r="2.86"/><path class="cls-16" d="M84.45,190.48c-9.64,14,7.08,12.56,7.08,12.56s1.67.91,1.09,3.43" transform="translate(-61.55 5.23)"/><path class="cls-16" d="M157.53,165.92c16.75-1.75,17.85-20.44,17.85-20.44" transform="translate(-61.55 5.23)"/><path class="cls-16" d="M113.81,212.51a21.43,21.43,0,0,1,0,14.43" transform="translate(-61.55 5.23)"/><path class="cls-16" d="M131.21,212.51a21.31,21.31,0,0,1,0,14.43" transform="translate(-61.55 5.23)"/></g></g></g></svg>