<svg xmlns="http://www.w3.org/2000/svg" viewBox="0 0 248.45 224.49"><defs><style>.cls-1,.cls-7{fill:#9bcaca;}.cls-1,.cls-6{opacity:0.5;}.cls-2{fill:#ffcdaa;}.cls-3,.cls-8{fill:none;stroke-linecap:round;stroke-miterlimit:10;}.cls-3{stroke:#000;stroke-width:2px;}.cls-4{fill:#ff9169;}.cls-12,.cls-5{fill:#d1dbe5;}.cls-5{opacity:0.3;}.cls-6{fill:#fff;}.cls-8{stroke:#9bcaca;stroke-width:4px;}.cls-9{fill:#b1a7d2;}.cls-10{fill:#eff4f4;}.cls-11{fill:#6552a2;}.cls-12{opacity:0.35;}</style></defs><g id="Layer_2" data-name="Layer 2"><g id="Lager_1" data-name="Lager 1"><circle class="cls-1" cx="119.42" cy="140.45" r="73.41"/><circle class="cls-2" cx="119.42" cy="140.45" r="59.19"/><path class="cls-3" d="M106.4,114.45a25.3,25.3,0,0,0,24.22-1.71"/><ellipse class="cls-4" cx="78.15" cy="121.56" rx="8.39" ry="4.44" transform="translate(-8.39 5.82) rotate(-4.05)"/><ellipse class="cls-4" cx="161.5" cy="115.66" rx="8.39" ry="4.44" transform="translate(-7.76 11.69) rotate(-4.05)"/><circle cx="89.91" cy="109.08" r="4.25"/><circle cx="148.1" cy="104.96" r="4.25"/><circle class="cls-5" cx="119.42" cy="140.45" r="73.41"/><path class="cls-6" d="M70.9,143c0-38.24,21.57-74.71,50.2-75.94C81,67.05,53.72,99,53.72,139.51s4.59,43.6,45.14,43.6C101.16,183.11,70.9,181.23,70.9,143Z"/><path class="cls-7" d="M119.42,147.63c-28,0-53.66-4.33-73.27-11.48-.08,1.42-.14,2.86-.14,4.3a73.41,73.41,0,1,0,146.82,0c0-1.44-.05-2.88-.14-4.3C173.08,143.3,147.46,147.63,119.42,147.63Z"/><polyline class="cls-8" points="95.83 202.24 93.63 222.5 85.7 222.5"/><polyline class="cls-8" points="138.13 202.24 140.33 222.5 148.26 222.5"/><path class="cls-8" d="M49.54,147.44S31.7,149.2,26.42,138"/><path class="cls-8" d="M190.8,147.44s14.41.66,19.69-10.57"/><ellipse class="cls-9" cx="66.51" cy="14.04" rx="7.36" ry="8.15" transform="translate(33.02 73.19) rotate(-72.4)"/><path class="cls-9" d="M70.7,12.43a23.86,23.86,0,0,1,7.86,1.78,13.7,13.7,0,0,1,3.75,2.47,16.86,16.86,0,0,1,2.63,3.22,19.89,19.89,0,0,0,1.71,2.44,4.17,4.17,0,0,0,1.73,1.22,6,6,0,0,0,2.29.47,4.85,4.85,0,0,0,2.19-.69,35,35,0,0,1,3.29-1.74,10.65,10.65,0,0,1,4.3-.82,11.12,11.12,0,0,1,4.17.9,9.18,9.18,0,0,1,3.4,2.66,36.11,36.11,0,0,1,2.06,3,20.45,20.45,0,0,0,2,2.57,16.74,16.74,0,0,0,5.19,3.81h0a1,1,0,0,1-.75,1.8,19.15,19.15,0,0,1-6.4-3.58c-1.93-1.6-3.38-3.74-4.78-5.1a5.24,5.24,0,0,0-2.18-1.31,8.25,8.25,0,0,0-2.62-.22,5.69,5.69,0,0,0-2.4.65,31.37,31.37,0,0,0-2.69,1.71,10.06,10.06,0,0,1-4.27,1.61,11.25,11.25,0,0,1-4.51-.48,10.07,10.07,0,0,1-4.07-2.39,24.33,24.33,0,0,1-2.53-3,8,8,0,0,0-4-3.16,17.62,17.62,0,0,0-5.65-.79h0a3.51,3.51,0,0,1,.06-7Z"/><circle class="cls-10" cx="61.21" cy="11.53" r="1.89"/><circle class="cls-10" cx="64.74" cy="12.44" r="1.89"/><circle class="cls-11" cx="61.79" cy="11.95" r="1.2"/><circle class="cls-11" cx="64.02" cy="12.52" r="1.2"/><ellipse class="cls-9" cx="30.73" cy="58.8" rx="5.87" ry="5.3" transform="translate(-10.43 6.76) rotate(-10.75)"/><path class="cls-9" d="M32.84,56.35a17.5,17.5,0,0,1,5.59-1.56,9.81,9.81,0,0,1,3.22.29,12.68,12.68,0,0,1,2.77,1.14,13.54,13.54,0,0,0,1.91,1,3,3,0,0,0,1.52.19,4.43,4.43,0,0,0,1.61-.49,3.37,3.37,0,0,0,1.15-1.19c.4-.59.84-1.42,1.49-2.23a7.73,7.73,0,0,1,2.45-2,8.15,8.15,0,0,1,2.94-.85,6.6,6.6,0,0,1,3.07.53c1.76.77,3,1.66,4.44,2.14a12.14,12.14,0,0,0,4.59.64h0a.7.7,0,0,1,.73.68.69.69,0,0,1-.59.72,13.81,13.81,0,0,1-5.28-.08C62.69,54.9,61,54,59.69,53.66a3.62,3.62,0,0,0-1.83-.09,6.11,6.11,0,0,0-1.74.75c-1.1.66-1.54,1.55-2.42,3.24A7.15,7.15,0,0,1,51.55,60a8,8,0,0,1-3,1.23,7,7,0,0,1-3.4-.12,16.65,16.65,0,0,1-2.63-1,5.81,5.81,0,0,0-3.6-.64,12.64,12.64,0,0,0-3.85,1.43h0a2.53,2.53,0,1,1-2.37-4.46Z"/><circle class="cls-10" cx="26.52" cy="59.03" r="1.36"/><circle class="cls-10" cx="29.07" cy="58.4" r="1.36"/><circle class="cls-11" cx="27.03" cy="59.1" r="0.86"/><circle class="cls-11" cx="28.64" cy="58.7" r="0.86"/><ellipse class="cls-9" cx="193.57" cy="86.63" rx="5.3" ry="5.87" transform="translate(63.56 254.17) rotate(-76.3)"/><path class="cls-9" d="M196.5,85.27a17.12,17.12,0,0,1,5.73.89,10.26,10.26,0,0,1,2.82,1.59,12.76,12.76,0,0,1,2,2.19,14.27,14.27,0,0,0,1.35,1.67,3,3,0,0,0,1.3.79,4.53,4.53,0,0,0,1.67.23A3.42,3.42,0,0,0,213,92a25.91,25.91,0,0,1,2.28-1.41,7.59,7.59,0,0,1,3.05-.8,7.81,7.81,0,0,1,3,.45A6.51,6.51,0,0,1,223.89,92c1.28,1.43,2,2.75,3.16,3.79A12,12,0,0,0,231,98.27h0a.71.71,0,0,1-.46,1.33,13.75,13.75,0,0,1-4.77-2.26c-1.46-1-2.61-2.52-3.69-3.43a3.75,3.75,0,0,0-1.62-.83,6.25,6.25,0,0,0-1.89,0c-1.29.15-2,.78-3.55,2a7.15,7.15,0,0,1-3,1.37,8.07,8.07,0,0,1-3.27-.13,7.2,7.2,0,0,1-3-1.51,17.05,17.05,0,0,1-2-2,5.71,5.71,0,0,0-3-2.07,12.54,12.54,0,0,0-4.1-.29h0a2.53,2.53,0,0,1-.3-5Z"/><circle class="cls-10" cx="189.64" cy="85.09" r="1.36"/><circle class="cls-10" cx="192.22" cy="85.57" r="1.36"/><circle class="cls-11" cx="190.07" cy="85.36" r="0.86"/><circle class="cls-11" cx="191.7" cy="85.66" r="0.86"/><ellipse class="cls-9" cx="129.85" cy="5.64" rx="5.64" ry="6.24" transform="translate(116.12 134.89) rotate(-86.42)"/><path class="cls-9" d="M132.67,3.67a18.09,18.09,0,0,1,6.17-.14,10.5,10.5,0,0,1,3.25,1.14,13.34,13.34,0,0,1,2.55,1.91,16.78,16.78,0,0,0,1.72,1.5,3.24,3.24,0,0,0,1.52.58,4.53,4.53,0,0,0,1.79-.08,3.62,3.62,0,0,0,1.5-.92,26.51,26.51,0,0,1,2.12-1.9,8.28,8.28,0,0,1,3-1.41,8.47,8.47,0,0,1,3.26-.1,7.05,7.05,0,0,1,3,1.35c1.6,1.25,2.63,2.49,4,3.38a13.2,13.2,0,0,0,4.57,1.87h0a.75.75,0,0,1-.22,1.48,14.9,14.9,0,0,1-5.43-1.47c-1.72-.83-3.2-2.16-4.49-2.91a4.07,4.07,0,0,0-1.86-.57,6.46,6.46,0,0,0-2,.32c-1.32.39-2,1.2-3.35,2.7a7.57,7.57,0,0,1-2.87,2,8.61,8.61,0,0,1-3.44.48,7.67,7.67,0,0,1-3.48-1,18.78,18.78,0,0,1-2.43-1.78,6.22,6.22,0,0,0-3.54-1.61,13.59,13.59,0,0,0-4.35.47h0a2.69,2.69,0,1,1-1.27-5.22Z"/><circle class="cls-10" cx="125.45" cy="4.76" r="1.45"/><circle class="cls-10" cx="128.24" cy="4.78" r="1.45"/><circle class="cls-11" cx="125.96" cy="4.96" r="0.92"/><circle class="cls-11" cx="127.72" cy="4.98" r="0.92"/><ellipse class="cls-9" cx="170.29" cy="40.72" rx="6.18" ry="5.58" transform="translate(-4.34 53.39) rotate(-17.6)"/><path class="cls-9" d="M167.34,44.82a13.2,13.2,0,0,0-4.29.6,6,6,0,0,0-3,2.39,19.55,19.55,0,0,1-1.92,2.29A7.57,7.57,0,0,1,155,51.91a8.65,8.65,0,0,1-3.42.37,7.5,7.5,0,0,1-3.23-1.23c-1.66-1.12-2.51-1.72-3.87-1.79a6.36,6.36,0,0,0-2,.18,3.78,3.78,0,0,0-1.65,1c-1.07,1-2.17,2.65-3.63,3.86A14.42,14.42,0,0,1,132.4,57a.74.74,0,0,1-.57-1.37h0a12.89,12.89,0,0,0,3.94-2.89c1.11-1.18,1.8-2.62,3-4.21a7,7,0,0,1,2.58-2,8.32,8.32,0,0,1,3.16-.68,8,8,0,0,1,3.26.62,27.31,27.31,0,0,1,2.5,1.32,3.54,3.54,0,0,0,1.66.52A4.48,4.48,0,0,0,153.7,48,3.18,3.18,0,0,0,155,47a16.33,16.33,0,0,0,1.3-1.85,12.56,12.56,0,0,1,2-2.44,10.28,10.28,0,0,1,2.84-1.87,18,18,0,0,1,6-1.36,2.66,2.66,0,0,1,.46,5.31h-.23Z"/><circle class="cls-10" cx="174.31" cy="38.83" r="1.44"/><circle class="cls-10" cx="171.63" cy="39.52" r="1.44"/><circle class="cls-11" cx="173.87" cy="39.14" r="0.91"/><circle class="cls-11" cx="172.18" cy="39.58" r="0.91"/><ellipse class="cls-9" cx="32.47" cy="101.51" rx="4.99" ry="4.51" transform="translate(-29.17 14.57) rotate(-17.6)"/><path class="cls-9" d="M30.09,104.82a10.91,10.91,0,0,0-3.47.48,4.9,4.9,0,0,0-2.43,1.94,15.47,15.47,0,0,1-1.55,1.85,6.14,6.14,0,0,1-2.5,1.46,7.12,7.12,0,0,1-2.76.3,6.2,6.2,0,0,1-2.61-1c-1.34-.9-2-1.39-3.13-1.44a4.91,4.91,0,0,0-1.6.13,3.08,3.08,0,0,0-1.34.81c-.86.83-1.75,2.14-2.93,3.12a11.62,11.62,0,0,1-3.92,2.19.6.6,0,0,1-.46-1.1h0a10.23,10.23,0,0,0,3.18-2.33c.9-1,1.46-2.11,2.46-3.4a5.62,5.62,0,0,1,2.09-1.63,6.65,6.65,0,0,1,5.18,0,22.36,22.36,0,0,1,2,1.06,2.84,2.84,0,0,0,1.35.42,4,4,0,0,0,1.4-.28,2.67,2.67,0,0,0,1.06-.75,11.7,11.7,0,0,0,1.05-1.49,10.3,10.3,0,0,1,1.61-2,8,8,0,0,1,2.3-1.51,14.43,14.43,0,0,1,4.81-1.09,2.15,2.15,0,1,1,.37,4.28h-.18Z"/><circle class="cls-10" cx="35.72" cy="99.98" r="1.16"/><circle class="cls-10" cx="33.56" cy="100.54" r="1.16"/><circle class="cls-11" cx="35.37" cy="100.23" r="0.73"/><circle class="cls-11" cx="34" cy="100.58" r="0.73"/><circle class="cls-12" cx="223.66" cy="154.03" r="6.84"/><circle class="cls-12" cx="17.25" cy="162.61" r="5.84"/><circle class="cls-12" cx="242.4" cy="136.13" r="6.04"/><circle class="cls-12" cx="230.5" cy="115.35" r="4.23"/><circle class="cls-12" cx="90.32" cy="56.56" r="6.84"/><circle class="cls-12" cx="108.1" cy="44.17" r="5.33"/><circle class="cls-12" cx="195.52" cy="37.82" r="5.33"/><circle class="cls-12" cx="98.64" cy="4.98" r="4.23"/><circle class="cls-12" cx="190.45" cy="15.77" r="4.23"/><circle class="cls-12" cx="5.33" cy="87.44" r="5.33"/><circle class="cls-12" cx="8.14" cy="64.87" r="4.23"/></g></g></svg>