<svg xmlns="http://www.w3.org/2000/svg" viewBox="0 0 202.81 132.73"><defs><style>.cls-1{fill:#ffcdaa;}.cls-2{fill:#ff9169;}.cls-13,.cls-3,.cls-4,.cls-7,.cls-8{fill:none;stroke-miterlimit:10;}.cls-3{stroke:#000;}.cls-13,.cls-3,.cls-4,.cls-8{stroke-linecap:round;}.cls-4{stroke:#ffcdaa;stroke-width:3px;}.cls-5{fill:#d8d3e8;}.cls-6{fill:#fff;}.cls-7{stroke:#fff;stroke-width:4px;}.cls-8{stroke:#6fc9ba;stroke-width:2.96px;}.cls-9{fill:#379696;}.cls-10{fill:#9bcaca;}.cls-11{fill:#eff4f4;}.cls-12{fill:#412d6e;}.cls-13{stroke:#412d6e;stroke-width:1.81px;}</style></defs><g id="Layer_2" data-name="Layer 2"><g id="Lager_1" data-name="Lager 1"><circle class="cls-1" cx="41.7" cy="66.95" r="41.69"/><ellipse class="cls-2" cx="15.29" cy="70.72" rx="5.91" ry="3.13" transform="translate(-12.17 3.78) rotate(-10.1)"/><ellipse class="cls-2" cx="73.23" cy="60.4" rx="5.91" ry="3.13" transform="translate(-9.46 13.78) rotate(-10.1)"/><path class="cls-3" d="M38.21,62.69a17.53,17.53,0,0,0,8.47-1.4"/><circle cx="22.6" cy="61.11" r="2.99"/><circle cx="63.05" cy="53.9" r="2.99"/><path class="cls-4" d="M5.14,83.59c-10.09,14.65,6.32,12.07,6.32,12.07"/><path class="cls-4" d="M81.87,65.56c15.43,6.52-.69,14.8-.69,14.8"/><path class="cls-4" d="M34.28,104.67a22.45,22.45,0,0,1,0,15.12"/><path class="cls-4" d="M52.51,104.67a22.39,22.39,0,0,1,0,15.12"/><rect class="cls-5" x="113.48" y="87.18" width="54.5" height="45.55" rx="10.73"/><rect class="cls-6" x="121.46" y="97.09" width="38.53" height="1.98" rx="0.99"/><rect class="cls-6" x="121.46" y="108.97" width="38.53" height="1.98" rx="0.99"/><rect class="cls-6" x="121.46" y="120.84" width="38.53" height="1.98" rx="0.99"/><path class="cls-7" d="M122.89,61h-7.18a11.39,11.39,0,0,0-11.39,11.39v1.4a11.38,11.38,0,0,0,11.39,11.38h50a11.38,11.38,0,0,0,11.39-11.38V65.89"/><path class="cls-8" d="M190.33,23.38s-3.42-3.75-13-3.75-12.95,3.75-12.95,3.75"/><path class="cls-8" d="M196.32,15.66S189.39,11,177.38,11s-18.94,4.7-18.94,4.7"/><path class="cls-8" d="M201.33,8s-7.58-5.51-24-5.51S153.43,8,153.43,8"/><rect class="cls-9" x="124.77" y="46.83" width="13.19" height="13.19"/><rect class="cls-10" x="119.47" y="57.63" width="23.79" height="6.77"/><rect class="cls-10" x="100.74" width="61.25" height="50.33" rx="13.78"/><rect class="cls-9" x="106.22" y="4.51" width="50.28" height="41.32" rx="9.6"/><rect class="cls-9" x="173.91" y="50.33" width="6.45" height="19.71"/><rect class="cls-10" x="171.88" y="37.18" width="10.51" height="30.54"/><path class="cls-10" d="M187,38c0,5.47-4.43,11.77-9.89,11.77s-9.9-6.3-9.9-11.77A9.9,9.9,0,0,1,187,38Z"/><path class="cls-9" d="M167.28,37.18H187a9.89,9.89,0,0,0-19.71,0Z"/><ellipse class="cls-10" cx="173.14" cy="32.64" rx="2.61" ry="2.03" transform="translate(58.31 166.27) rotate(-60)"/><circle class="cls-11" cx="122.78" cy="22.68" r="8.96"/><circle class="cls-11" cx="139.94" cy="24.07" r="8.96"/><circle class="cls-12" cx="126.19" cy="24.17" r="5.26" transform="translate(12.23 83.51) rotate(-38.35)"/><circle class="cls-12" cx="136.27" cy="24.99" r="5.26"/><path class="cls-13" d="M128,33.31c.84,1.79,3.78,2.65,5.64,0"/></g></g></svg>